<?xml version="1.0" encoding="UTF-8" standalone="no"?>
<!DOCTYPE svg PUBLIC "-//W3C//DTD SVG 1.1//EN"
 "http://www.w3.org/Graphics/SVG/1.1/DTD/svg11.dtd">
<!-- Generated by graphviz version 2.26.3 (20100126.1600)
 -->
<!-- Title: G Pages: 1 -->
<svg width="4162pt" height="1148pt"
 viewBox="0.00 0.00 4162.00 1148.00" xmlns="http://www.w3.org/2000/svg" xmlns:xlink="http://www.w3.org/1999/xlink">
<g id="graph1" class="graph" transform="scale(1 1) rotate(0) translate(4 1144)">
<title>G</title>
<polygon fill="white" stroke="white" points="-4,5 -4,-1144 4159,-1144 4159,5 -4,5"/>
<!-- ActiveModel::MassAssignmentSecurity::ClassMethods -->
<g id="node1" class="node"><title>ActiveModel::MassAssignmentSecurity::ClassMethods</title>
<ellipse fill="none" stroke="black" cx="702" cy="-126" rx="218.017" ry="18"/>
<text text-anchor="middle" x="702" y="-121.4" font-family="Times,serif" font-size="14.00">ActiveModel::MassAssignmentSecurity::ClassMethods</text>
</g>
<!-- Visitor -->
<g id="node3" class="node"><title>Visitor</title>
<ellipse fill="none" stroke="black" cx="1228" cy="-126" rx="37" ry="18"/>
<text text-anchor="middle" x="1228" y="-121.4" font-family="Times,serif" font-size="14.00">Visitor</text>
</g>
<!-- ActiveModel::MassAssignmentSecurity::ClassMethods&#45;&gt;Visitor -->
<g id="edge124" class="edge"><title>ActiveModel::MassAssignmentSecurity::ClassMethods&#45;&gt;Visitor</title>
<path fill="none" stroke="black" d="M930.335,-126C1023.89,-126 1123.41,-126 1180.4,-126"/>
<polygon fill="black" stroke="black" points="930.121,-122.5 920.121,-126 930.121,-129.5 930.121,-122.5"/>
<polygon fill="black" stroke="black" points="1180.53,-129.5 1190.53,-126 1180.53,-122.5 1180.53,-129.5"/>
</g>
<!-- ActiveModel::MassAssignmentSecurity -->
<g id="node2" class="node"><title>ActiveModel::MassAssignmentSecurity</title>
<ellipse fill="none" stroke="black" cx="189" cy="-99" rx="159.827" ry="18"/>
<text text-anchor="middle" x="189" y="-94.4" font-family="Times,serif" font-size="14.00">ActiveModel::MassAssignmentSecurity</text>
</g>
<!-- ActiveModel::MassAssignmentSecurity&#45;&gt;ActiveModel::MassAssignmentSecurity::ClassMethods -->
<g id="edge2" class="edge"><title>ActiveModel::MassAssignmentSecurity&#45;&gt;ActiveModel::MassAssignmentSecurity::ClassMethods</title>
<path fill="none" stroke="black" d="M334.633,-106.665C388.426,-109.496 450.274,-112.751 507.697,-115.774"/>
<polygon fill="black" stroke="black" points="507.82,-119.285 517.99,-116.315 508.187,-112.294 507.82,-119.285"/>
</g>
<!-- ActiveModel::MassAssignmentSecurity::Sanitizer -->
<g id="node35" class="node"><title>ActiveModel::MassAssignmentSecurity::Sanitizer</title>
<ellipse fill="none" stroke="black" cx="702" cy="-72" rx="198" ry="18"/>
<text text-anchor="middle" x="702" y="-67.4" font-family="Times,serif" font-size="14.00">ActiveModel::MassAssignmentSecurity::Sanitizer</text>
</g>
<!-- ActiveModel::MassAssignmentSecurity&#45;&gt;ActiveModel::MassAssignmentSecurity::Sanitizer -->
<g id="edge126" class="edge"><title>ActiveModel::MassAssignmentSecurity&#45;&gt;ActiveModel::MassAssignmentSecurity::Sanitizer</title>
<path fill="none" stroke="black" d="M334.633,-91.3351C392.437,-88.2928 459.542,-84.7609 520.463,-81.5546"/>
<polygon fill="black" stroke="black" points="520.774,-85.0431 530.577,-81.0223 520.407,-78.0528 520.774,-85.0431"/>
</g>
<!-- ActiveModel::Naming -->
<g id="node4" class="node"><title>ActiveModel::Naming</title>
<ellipse fill="none" stroke="black" cx="3302" cy="-238" rx="94.7578" ry="18"/>
<text text-anchor="middle" x="3302" y="-233.4" font-family="Times,serif" font-size="14.00">ActiveModel::Naming</text>
</g>
<!-- ActiveModel::Name -->
<g id="node8" class="node"><title>ActiveModel::Name</title>
<ellipse fill="none" stroke="black" cx="3650" cy="-284" rx="88" ry="18"/>
<text text-anchor="middle" x="3650" y="-279.4" font-family="Times,serif" font-size="14.00">ActiveModel::Name</text>
</g>
<!-- ActiveModel::Naming&#45;&gt;ActiveModel::Name -->
<g id="edge104" class="edge"><title>ActiveModel::Naming&#45;&gt;ActiveModel::Name</title>
<path fill="none" stroke="black" d="M3390.67,-249.721C3444.52,-256.839 3512.87,-265.873 3565.87,-272.88"/>
<polygon fill="black" stroke="black" points="3390.9,-246.221 3380.53,-248.381 3389.99,-253.161 3390.9,-246.221"/>
<polygon fill="black" stroke="black" points="3565.55,-276.367 3575.92,-274.208 3566.47,-269.428 3565.55,-276.367"/>
</g>
<!-- ActiveModel::Conversion -->
<g id="node14" class="node"><title>ActiveModel::Conversion</title>
<ellipse fill="none" stroke="black" cx="3650" cy="-192" rx="106.832" ry="18"/>
<text text-anchor="middle" x="3650" y="-187.4" font-family="Times,serif" font-size="14.00">ActiveModel::Conversion</text>
</g>
<!-- ActiveModel::Naming&#45;&gt;ActiveModel::Conversion -->
<g id="edge24" class="edge"><title>ActiveModel::Naming&#45;&gt;ActiveModel::Conversion</title>
<path fill="none" stroke="black" d="M3380.53,-227.619C3432.34,-220.772 3500.49,-211.763 3555.3,-204.518"/>
<polygon fill="black" stroke="black" points="3555.91,-207.967 3565.37,-203.187 3554.99,-201.028 3555.91,-207.967"/>
</g>
<!-- ActiveModel::Translation -->
<g id="node5" class="node"><title>ActiveModel::Translation</title>
<ellipse fill="none" stroke="black" cx="3974" cy="-284" rx="106.16" ry="18"/>
<text text-anchor="middle" x="3974" y="-279.4" font-family="Times,serif" font-size="14.00">ActiveModel::Translation</text>
</g>
<!-- ActiveModel::Translation&#45;&gt;ActiveModel::Naming -->
<g id="edge6" class="edge"><title>ActiveModel::Translation&#45;&gt;ActiveModel::Naming</title>
<path fill="none" stroke="black" d="M3893.13,-272.282C3852.64,-266.825 3802.82,-260.728 3758,-257 3638.13,-247.028 3500.07,-242.201 3407.55,-239.924"/>
<polygon fill="black" stroke="black" points="3407.42,-236.42 3397.34,-239.679 3407.25,-243.418 3407.42,-236.42"/>
</g>
<!-- ActiveModel::Serializers::JSON -->
<g id="node6" class="node"><title>ActiveModel::Serializers::JSON</title>
<ellipse fill="none" stroke="black" cx="2897" cy="-307" rx="131" ry="18"/>
<text text-anchor="middle" x="2897" y="-302.4" font-family="Times,serif" font-size="14.00">ActiveModel::Serializers::JSON</text>
</g>
<!-- ActiveModel::Serializers::JSON&#45;&gt;ActiveModel::Naming -->
<g id="edge8" class="edge"><title>ActiveModel::Serializers::JSON&#45;&gt;ActiveModel::Naming</title>
<path fill="none" stroke="black" d="M2979.45,-292.954C3049.88,-280.954 3150.63,-263.789 3220.72,-251.847"/>
<polygon fill="black" stroke="black" points="3221.57,-255.254 3230.84,-250.124 3220.39,-248.354 3221.57,-255.254"/>
</g>
<!-- ActiveModel::Serialization -->
<g id="node29" class="node"><title>ActiveModel::Serialization</title>
<ellipse fill="none" stroke="black" cx="3302" cy="-330" rx="110.185" ry="18"/>
<text text-anchor="middle" x="3302" y="-325.4" font-family="Times,serif" font-size="14.00">ActiveModel::Serialization</text>
</g>
<!-- ActiveModel::Serializers::JSON&#45;&gt;ActiveModel::Serialization -->
<g id="edge60" class="edge"><title>ActiveModel::Serializers::JSON&#45;&gt;ActiveModel::Serialization</title>
<path fill="none" stroke="black" d="M3018.24,-313.885C3071.88,-316.931 3134.64,-320.495 3187.47,-323.496"/>
<polygon fill="black" stroke="black" points="3187.38,-326.996 3197.56,-324.069 3187.78,-320.007 3187.38,-326.996"/>
</g>
<!-- ActiveModel::Errors -->
<g id="node7" class="node"><title>ActiveModel::Errors</title>
<ellipse fill="none" stroke="black" cx="2897" cy="-376" rx="88.048" ry="18"/>
<text text-anchor="middle" x="2897" y="-371.4" font-family="Times,serif" font-size="14.00">ActiveModel::Errors</text>
</g>
<!-- ActiveModel::Errors&#45;&gt;ActiveModel::Naming -->
<g id="edge10" class="edge"><title>ActiveModel::Errors&#45;&gt;ActiveModel::Naming</title>
<path fill="none" stroke="black" d="M2968.65,-365.253C2998.64,-358.883 3033.16,-349.017 3062,-334 3080.73,-324.248 3079.57,-313.302 3098,-303 3138.47,-280.382 3187.92,-264.374 3228,-253.905"/>
<polygon fill="black" stroke="black" points="3228.89,-257.291 3237.72,-251.428 3227.16,-250.508 3228.89,-257.291"/>
</g>
<!-- ActiveModel::Errors&#45;&gt;ActiveModel::Translation -->
<g id="edge26" class="edge"><title>ActiveModel::Errors&#45;&gt;ActiveModel::Translation</title>
<path fill="none" stroke="black" d="M3302,-376C3392.86,-370.021 3415.64,-368.245 3506,-357 3640.83,-340.222 3796.57,-314.692 3890.07,-298.696"/>
<polygon fill="black" stroke="black" points="3890.77,-302.127 3900.03,-296.987 3889.59,-295.228 3890.77,-302.127"/>
</g>
<!-- ActiveModel::Errors&#45;&gt;ActiveModel::Name -->
<g id="edge102" class="edge"><title>ActiveModel::Errors&#45;&gt;ActiveModel::Name</title>
<path fill="none" stroke="black" d="M2984.01,-379.297C3066.1,-381.627 3192.55,-383.202 3302,-376"/>
<path fill="none" stroke="black" d="M3302,-376C3392.86,-370.021 3418.51,-382.255 3506,-357 3545.37,-345.636 3586.73,-323.448 3614.97,-306.503"/>
<polygon fill="black" stroke="black" points="3616.94,-309.399 3623.66,-301.205 3613.3,-303.422 3616.94,-309.399"/>
</g>
<!-- ActiveModel::Name&#45;&gt;ActiveModel::Translation -->
<g id="edge28" class="edge"><title>ActiveModel::Name&#45;&gt;ActiveModel::Translation</title>
<path fill="none" stroke="black" d="M3738.11,-284C3774.82,-284 3817.99,-284 3857.28,-284"/>
<polygon fill="black" stroke="black" points="3857.45,-287.5 3867.45,-284 3857.45,-280.5 3857.45,-287.5"/>
</g>
<!-- ActiveModel::Serializers::Xml::Serializer -->
<g id="node9" class="node"><title>ActiveModel::Serializers::Xml::Serializer</title>
<ellipse fill="none" stroke="black" cx="2897" cy="-126" rx="165.022" ry="18"/>
<text text-anchor="middle" x="2897" y="-121.4" font-family="Times,serif" font-size="14.00">ActiveModel::Serializers::Xml::Serializer</text>
</g>
<!-- ActiveModel::Serializers::Xml::Serializer&#45;&gt;ActiveModel::Naming -->
<g id="edge14" class="edge"><title>ActiveModel::Serializers::Xml::Serializer&#45;&gt;ActiveModel::Naming</title>
<path fill="none" stroke="black" d="M2957.63,-142.768C3033.03,-163.617 3161.14,-199.047 3238.05,-220.314"/>
<polygon fill="black" stroke="black" points="3237.52,-223.799 3248.09,-223.091 3239.38,-217.052 3237.52,-223.799"/>
</g>
<!-- ActiveModel::Serializers::Xml::Serializer::Attribute -->
<g id="node43" class="node"><title>ActiveModel::Serializers::Xml::Serializer::Attribute</title>
<ellipse fill="none" stroke="black" cx="3302" cy="-126" rx="202.759" ry="18"/>
<text text-anchor="middle" x="3302" y="-121.4" font-family="Times,serif" font-size="14.00">ActiveModel::Serializers::Xml::Serializer::Attribute</text>
</g>
<!-- ActiveModel::Serializers::Xml::Serializer&#45;&gt;ActiveModel::Serializers::Xml::Serializer::Attribute -->
<g id="edge138" class="edge"><title>ActiveModel::Serializers::Xml::Serializer&#45;&gt;ActiveModel::Serializers::Xml::Serializer::Attribute</title>
<path fill="none" stroke="black" d="M3062.02,-126C3070.59,-126 3079.26,-126 3087.95,-126"/>
<polygon fill="black" stroke="black" points="3088.17,-129.5 3098.17,-126 3088.17,-122.5 3088.17,-129.5"/>
</g>
<!-- ActiveModel::Lint::Tests -->
<g id="node10" class="node"><title>ActiveModel::Lint::Tests</title>
<ellipse fill="none" stroke="black" cx="2897" cy="-238" rx="104.82" ry="18"/>
<text text-anchor="middle" x="2897" y="-233.4" font-family="Times,serif" font-size="14.00">ActiveModel::Lint::Tests</text>
</g>
<!-- ActiveModel::Lint::Tests&#45;&gt;ActiveModel::Naming -->
<g id="edge16" class="edge"><title>ActiveModel::Lint::Tests&#45;&gt;ActiveModel::Naming</title>
<path fill="none" stroke="black" d="M3002.62,-238C3062.21,-238 3136.46,-238 3196.11,-238"/>
<polygon fill="black" stroke="black" points="3196.3,-241.5 3206.3,-238 3196.3,-234.5 3196.3,-241.5"/>
</g>
<!-- ActiveModel::Lint::Tests&#45;&gt;ActiveModel::Name -->
<g id="edge100" class="edge"><title>ActiveModel::Lint::Tests&#45;&gt;ActiveModel::Name</title>
<path fill="none" stroke="black" d="M2974.6,-250.25C3011.83,-255.659 3057.13,-261.56 3098,-265 3256.45,-278.336 3441.23,-282.367 3551.76,-283.552"/>
<polygon fill="black" stroke="black" points="3551.85,-287.054 3561.89,-283.655 3551.92,-280.054 3551.85,-287.054"/>
</g>
<!-- ActiveModel::Lint::Tests&#45;&gt;ActiveModel::Conversion -->
<g id="edge22" class="edge"><title>ActiveModel::Lint::Tests&#45;&gt;ActiveModel::Conversion</title>
<path fill="none" stroke="black" d="M2974.6,-225.75C3011.83,-220.341 3057.13,-214.44 3098,-211 3247.41,-198.424 3420.25,-194.123 3532.14,-192.679"/>
<polygon fill="black" stroke="black" points="3532.49,-196.175 3542.44,-192.552 3532.4,-189.176 3532.49,-196.175"/>
</g>
<!-- ActiveModel::Validations::PresenceValidator -->
<g id="node11" class="node"><title>ActiveModel::Validations::PresenceValidator</title>
<ellipse fill="none" stroke="black" cx="189" cy="-726" rx="180" ry="18"/>
<text text-anchor="middle" x="189" y="-721.4" font-family="Times,serif" font-size="14.00">ActiveModel::Validations::PresenceValidator</text>
</g>
<!-- ActiveModel::Validations::PresenceValidator&#45;&gt;ActiveModel::Errors -->
<g id="edge94" class="edge"><title>ActiveModel::Validations::PresenceValidator&#45;&gt;ActiveModel::Errors</title>
<path fill="none" stroke="black" d="M278.422,-741.662C431.106,-767.525 752.148,-818.082 1026,-836 1414.5,-861.42 1516.75,-892.272 1902,-836 1994.25,-822.525 2009.82,-779.113 2103,-776"/>
</g>
<!-- ActiveModel::Validations -->
<g id="node12" class="node"><title>ActiveModel::Validations</title>
<ellipse fill="none" stroke="black" cx="702" cy="-684" rx="106.16" ry="18"/>
<text text-anchor="middle" x="702" y="-679.4" font-family="Times,serif" font-size="14.00">ActiveModel::Validations</text>
</g>
<!-- ActiveModel::Validations::PresenceValidator&#45;&gt;ActiveModel::Validations -->
<g id="edge34" class="edge"><title>ActiveModel::Validations::PresenceValidator&#45;&gt;ActiveModel::Validations</title>
<path fill="none" stroke="black" d="M338.652,-713.748C421.031,-707.003 521.314,-698.793 595.64,-692.708"/>
<polygon fill="black" stroke="black" points="338.183,-710.274 328.502,-714.579 338.754,-717.251 338.183,-710.274"/>
<polygon fill="black" stroke="black" points="596.27,-696.168 605.951,-691.864 595.699,-689.191 596.27,-696.168"/>
</g>
<!-- ActiveModel::Validations&#45;&gt;ActiveModel::Errors -->
<g id="edge96" class="edge"><title>ActiveModel::Validations&#45;&gt;ActiveModel::Errors</title>
<path fill="none" stroke="black" d="M805.115,-688.529C1055.47,-699.697 1690.38,-729.087 1902,-749 1991.74,-757.444 2012.91,-778.849 2103,-776"/>
</g>
<!-- ActiveModel::Validations::LengthValidator -->
<g id="node17" class="node"><title>ActiveModel::Validations::LengthValidator</title>
<ellipse fill="none" stroke="black" cx="2500" cy="-332" rx="173.072" ry="18"/>
<text text-anchor="middle" x="2500" y="-327.4" font-family="Times,serif" font-size="14.00">ActiveModel::Validations::LengthValidator</text>
</g>
<!-- ActiveModel::Validations&#45;&gt;ActiveModel::Validations::LengthValidator -->
<g id="edge52" class="edge"><title>ActiveModel::Validations&#45;&gt;ActiveModel::Validations::LengthValidator</title>
<path fill="none" stroke="black" d="M712.378,-656.323C744.489,-575.007 850.747,-336.147 1026,-234 1194.44,-135.826 1708.14,-165.316 1902,-186 2067.47,-203.655 2106.63,-224.335 2268,-265 2324.74,-279.299 2388.57,-297.922 2434.9,-311.903"/>
<polygon fill="black" stroke="black" points="709.112,-655.066 708.748,-665.654 715.635,-657.604 709.112,-655.066"/>
<polygon fill="black" stroke="black" points="2433.92,-315.265 2444.51,-314.813 2435.95,-308.565 2433.92,-315.265"/>
</g>
<!-- ActiveModel::Validations::Callbacks -->
<g id="node22" class="node"><title>ActiveModel::Validations::Callbacks</title>
<ellipse fill="none" stroke="black" cx="1228" cy="-776" rx="147.752" ry="18"/>
<text text-anchor="middle" x="1228" y="-771.4" font-family="Times,serif" font-size="14.00">ActiveModel::Validations::Callbacks</text>
</g>
<!-- ActiveModel::Validations&#45;&gt;ActiveModel::Validations::Callbacks -->
<g id="edge106" class="edge"><title>ActiveModel::Validations&#45;&gt;ActiveModel::Validations::Callbacks</title>
<path fill="none" stroke="black" d="M782.226,-699.457C847.73,-711.932 942.743,-729.699 1026,-744 1058.29,-749.546 1093.54,-755.251 1125.43,-760.28"/>
<polygon fill="black" stroke="black" points="782.856,-696.014 772.377,-697.578 781.545,-702.89 782.856,-696.014"/>
<polygon fill="black" stroke="black" points="1125.23,-763.792 1135.65,-761.888 1126.32,-756.877 1125.23,-763.792"/>
</g>
<!-- ActiveModel::EachValidator -->
<g id="node24" class="node"><title>ActiveModel::EachValidator</title>
<ellipse fill="none" stroke="black" cx="1228" cy="-527" rx="118.064" ry="18"/>
<text text-anchor="middle" x="1228" y="-522.4" font-family="Times,serif" font-size="14.00">ActiveModel::EachValidator</text>
</g>
<!-- ActiveModel::Validations&#45;&gt;ActiveModel::EachValidator -->
<g id="edge68" class="edge"><title>ActiveModel::Validations&#45;&gt;ActiveModel::EachValidator</title>
<path fill="none" stroke="black" d="M754.843,-668.227C852.135,-639.188 1059.23,-577.375 1164.18,-546.048"/>
<polygon fill="black" stroke="black" points="1165.43,-549.327 1174.01,-543.114 1163.43,-542.62 1165.43,-549.327"/>
</g>
<!-- #&lt;LintTest::CompliantModel:0x10239a2a8&gt; -->
<g id="node13" class="node"><title>#&lt;LintTest::CompliantModel:0x10239a2a8&gt;</title>
<ellipse fill="none" stroke="black" cx="3974" cy="-157" rx="179.109" ry="18"/>
<text text-anchor="middle" x="3974" y="-152.4" font-family="Times,serif" font-size="14.00">#&lt;LintTest::CompliantModel:0x10239a2a8&gt;</text>
</g>
<!-- ActiveModel::Conversion&#45;&gt;#&lt;LintTest::CompliantModel:0x10239a2a8&gt; -->
<g id="edge20" class="edge"><title>ActiveModel::Conversion&#45;&gt;#&lt;LintTest::CompliantModel:0x10239a2a8&gt;</title>
<path fill="none" stroke="black" d="M3740.68,-182.204C3772.03,-178.817 3807.84,-174.95 3841.83,-171.278"/>
<polygon fill="black" stroke="black" points="3842.27,-174.751 3851.83,-170.197 3841.52,-167.791 3842.27,-174.751"/>
</g>
<!-- #&lt;LintTest::CompliantModel:0x1023b1e30&gt; -->
<g id="node36" class="node"><title>#&lt;LintTest::CompliantModel:0x1023b1e30&gt;</title>
<ellipse fill="none" stroke="black" cx="3974" cy="-211" rx="180" ry="18"/>
<text text-anchor="middle" x="3974" y="-206.4" font-family="Times,serif" font-size="14.00">#&lt;LintTest::CompliantModel:0x1023b1e30&gt;</text>
</g>
<!-- ActiveModel::Conversion&#45;&gt;#&lt;LintTest::CompliantModel:0x1023b1e30&gt; -->
<g id="edge108" class="edge"><title>ActiveModel::Conversion&#45;&gt;#&lt;LintTest::CompliantModel:0x1023b1e30&gt;</title>
<path fill="none" stroke="black" d="M3751.63,-197.96C3769.72,-199.021 3788.99,-200.151 3808.33,-201.285"/>
<polygon fill="black" stroke="black" points="3808.25,-204.786 3818.44,-201.878 3808.66,-197.798 3808.25,-204.786"/>
</g>
<!-- ActiveModel::Validations::NumericalityValidator -->
<g id="node15" class="node"><title>ActiveModel::Validations::NumericalityValidator</title>
<ellipse fill="none" stroke="black" cx="2500" cy="-568" rx="195.209" ry="18"/>
<text text-anchor="middle" x="2500" y="-563.4" font-family="Times,serif" font-size="14.00">ActiveModel::Validations::NumericalityValidator</text>
</g>
<!-- ActiveModel::Validations::NumericalityValidator&#45;&gt;ActiveModel::Errors -->
<g id="edge82" class="edge"><title>ActiveModel::Validations::NumericalityValidator&#45;&gt;ActiveModel::Errors</title>
<path fill="none" stroke="black" d="M2638.62,-555.315C2658.36,-550.877 2678.04,-544.937 2696,-537 2769.88,-504.353 2839.58,-437.61 2874.21,-401.148"/>
<polygon fill="black" stroke="black" points="2876.77,-403.538 2881.06,-393.85 2871.66,-398.749 2876.77,-403.538"/>
</g>
<!-- ActiveModel::Validations::NumericalityValidator&#45;&gt;ActiveModel::Validations -->
<g id="edge30" class="edge"><title>ActiveModel::Validations::NumericalityValidator&#45;&gt;ActiveModel::Validations</title>
<path fill="none" stroke="black" d="M2410.35,-584.042C2293.74,-608.084 2087.32,-661.737 1938,-762 1917.87,-775.518 1923.95,-792.688 1902,-803 1769.43,-865.284 1394.4,-838.688 1238.4,-823.059"/>
<polygon fill="black" stroke="black" points="1238.3,-819.531 1228,-822 1237.59,-826.495 1238.3,-819.531"/>
</g>
<!-- ActiveModel::Validations::AcceptanceValidator -->
<g id="node16" class="node"><title>ActiveModel::Validations::AcceptanceValidator</title>
<ellipse fill="none" stroke="black" cx="1684" cy="-294" rx="190" ry="18"/>
<text text-anchor="middle" x="1684" y="-289.4" font-family="Times,serif" font-size="14.00">ActiveModel::Validations::AcceptanceValidator</text>
</g>
<!-- ActiveModel::Validations::AcceptanceValidator&#45;&gt;ActiveModel::Errors -->
<g id="edge88" class="edge"><title>ActiveModel::Validations::AcceptanceValidator&#45;&gt;ActiveModel::Errors</title>
<path fill="none" stroke="black" d="M1764.21,-277.649C1939.55,-245.547 2367.51,-187.138 2696,-305 2715.34,-311.939 2713.62,-324.811 2732,-334 2758.14,-347.07 2788.69,-356.308 2816.36,-362.726"/>
<polygon fill="black" stroke="black" points="2815.88,-366.206 2826.41,-364.965 2817.41,-359.374 2815.88,-366.206"/>
</g>
<!-- ActiveModel::Validations::AcceptanceValidator&#45;&gt;ActiveModel::Validations -->
<g id="edge32" class="edge"><title>ActiveModel::Validations::AcceptanceValidator&#45;&gt;ActiveModel::Validations</title>
<path fill="none" stroke="black" d="M1579.69,-278.944C1464.9,-263.031 1289.78,-240.894 1238.15,-246.128"/>
<polygon fill="black" stroke="black" points="1237.2,-242.744 1228,-248 1238.47,-249.628 1237.2,-242.744"/>
</g>
<!-- ActiveModel::Validations::ClassMethods -->
<g id="node25" class="node"><title>ActiveModel::Validations::ClassMethods</title>
<ellipse fill="none" stroke="black" cx="2103" cy="-443" rx="165.022" ry="18"/>
<text text-anchor="middle" x="2103" y="-438.4" font-family="Times,serif" font-size="14.00">ActiveModel::Validations::ClassMethods</text>
</g>
<!-- ActiveModel::Validations::AcceptanceValidator&#45;&gt;ActiveModel::Validations::ClassMethods -->
<g id="edge140" class="edge"><title>ActiveModel::Validations::AcceptanceValidator&#45;&gt;ActiveModel::Validations::ClassMethods</title>
<path fill="none" stroke="black" d="M1742.88,-314.937C1822.85,-343.377 1964.97,-393.915 2044.66,-422.255"/>
<polygon fill="black" stroke="black" points="1743.89,-311.583 1733.3,-311.53 1741.55,-318.179 1743.89,-311.583"/>
<polygon fill="black" stroke="black" points="2043.94,-425.713 2054.54,-425.766 2046.29,-419.118 2043.94,-425.713"/>
</g>
<!-- ActiveModel::Validations::LengthValidator&#45;&gt;ActiveModel::Errors -->
<g id="edge84" class="edge"><title>ActiveModel::Validations::LengthValidator&#45;&gt;ActiveModel::Errors</title>
<path fill="none" stroke="black" d="M2618.58,-345.142C2679.66,-351.912 2752.87,-360.026 2808.89,-366.234"/>
<polygon fill="black" stroke="black" points="2808.81,-369.748 2819.14,-367.371 2809.59,-362.79 2808.81,-369.748"/>
</g>
<!-- ActiveModel::Validations::InclusionValidator -->
<g id="node18" class="node"><title>ActiveModel::Validations::InclusionValidator</title>
<ellipse fill="none" stroke="black" cx="1684" cy="-630" rx="179.951" ry="18"/>
<text text-anchor="middle" x="1684" y="-625.4" font-family="Times,serif" font-size="14.00">ActiveModel::Validations::InclusionValidator</text>
</g>
<!-- ActiveModel::Validations::InclusionValidator&#45;&gt;ActiveModel::Errors -->
<g id="edge90" class="edge"><title>ActiveModel::Validations::InclusionValidator&#45;&gt;ActiveModel::Errors</title>
<path fill="none" stroke="black" d="M1798.58,-643.943C1831.94,-648.069 1868.43,-652.648 1902,-657 2034.99,-674.242 2374.96,-786.451 2500,-738"/>
<path fill="none" stroke="black" d="M2500,-738C2680.62,-668.146 2829.39,-473.493 2879.18,-402.415"/>
<polygon fill="black" stroke="black" points="2882.19,-404.205 2885.01,-393.993 2876.44,-400.217 2882.19,-404.205"/>
</g>
<!-- ActiveModel::Validations::InclusionValidator&#45;&gt;ActiveModel::Validations -->
<g id="edge38" class="edge"><title>ActiveModel::Validations::InclusionValidator&#45;&gt;ActiveModel::Validations</title>
<path fill="none" stroke="black" d="M1228,-684C1082.52,-688.303 914.315,-687.248 808.063,-685.839"/>
<path fill="none" stroke="black" d="M1570.21,-643.983C1453.65,-658.239 1283.3,-678.859 1238.15,-683.191"/>
<polygon fill="black" stroke="black" points="1237.69,-679.716 1228,-684 1238.25,-686.694 1237.69,-679.716"/>
</g>
<!-- ActiveModel::Validations::FormatValidator -->
<g id="node19" class="node"><title>ActiveModel::Validations::FormatValidator</title>
<ellipse fill="none" stroke="black" cx="1684" cy="-776" rx="173.242" ry="18"/>
<text text-anchor="middle" x="1684" y="-771.4" font-family="Times,serif" font-size="14.00">ActiveModel::Validations::FormatValidator</text>
</g>
<!-- ActiveModel::Validations::FormatValidator&#45;&gt;ActiveModel::Errors -->
<g id="edge80" class="edge"><title>ActiveModel::Validations::FormatValidator&#45;&gt;ActiveModel::Errors</title>
<path fill="none" stroke="black" d="M1856.04,-778.449C1931.8,-778.895 2021.84,-778.566 2103,-776"/>
</g>
<!-- ActiveModel::Validations::FormatValidator&#45;&gt;ActiveModel::Validations -->
<g id="edge40" class="edge"><title>ActiveModel::Validations::FormatValidator&#45;&gt;ActiveModel::Validations</title>
<path fill="none" stroke="black" d="M1228,-822C1138.3,-812.72 1113.94,-822.933 1026,-803 918.175,-778.561 797.48,-727.539 738.471,-700.944"/>
<path fill="none" stroke="black" d="M1584.47,-790.795C1476.95,-805.975 1311.22,-826.842 1238.1,-822.783"/>
<polygon fill="black" stroke="black" points="1238.24,-819.284 1228,-822 1237.7,-826.263 1238.24,-819.284"/>
</g>
<!-- ActiveModel::Validations::ExclusionValidator -->
<g id="node20" class="node"><title>ActiveModel::Validations::ExclusionValidator</title>
<ellipse fill="none" stroke="black" cx="1684" cy="-684" rx="183.134" ry="18"/>
<text text-anchor="middle" x="1684" y="-679.4" font-family="Times,serif" font-size="14.00">ActiveModel::Validations::ExclusionValidator</text>
</g>
<!-- ActiveModel::Validations::ExclusionValidator&#45;&gt;ActiveModel::Errors -->
<g id="edge86" class="edge"><title>ActiveModel::Validations::ExclusionValidator&#45;&gt;ActiveModel::Errors</title>
<path fill="none" stroke="black" d="M2103,-776C2280.16,-770.398 2334.68,-801.936 2500,-738"/>
<path fill="none" stroke="black" d="M1800.53,-697.935C1833.51,-702.736 1869.32,-708.764 1902,-716 1993.02,-736.156 2009.82,-778.946 2103,-776"/>
</g>
<!-- ActiveModel::Validations::ExclusionValidator&#45;&gt;ActiveModel::Validations -->
<g id="edge42" class="edge"><title>ActiveModel::Validations::ExclusionValidator&#45;&gt;ActiveModel::Validations</title>
<path fill="none" stroke="black" d="M1502.56,-681.54C1422.05,-681.057 1325.85,-681.306 1238.11,-683.712"/>
<polygon fill="black" stroke="black" points="1237.9,-680.217 1228,-684 1238.1,-687.214 1237.9,-680.217"/>
</g>
<!-- ActiveModel::Validations::ConfirmationValidator -->
<g id="node21" class="node"><title>ActiveModel::Validations::ConfirmationValidator</title>
<ellipse fill="none" stroke="black" cx="2500" cy="-386" rx="196" ry="18"/>
<text text-anchor="middle" x="2500" y="-381.4" font-family="Times,serif" font-size="14.00">ActiveModel::Validations::ConfirmationValidator</text>
</g>
<!-- ActiveModel::Validations::ConfirmationValidator&#45;&gt;ActiveModel::Errors -->
<g id="edge92" class="edge"><title>ActiveModel::Validations::ConfirmationValidator&#45;&gt;ActiveModel::Errors</title>
<path fill="none" stroke="black" d="M2689.2,-381.234C2727.21,-380.277 2765.67,-379.308 2799,-378.469"/>
<polygon fill="black" stroke="black" points="2799.26,-381.963 2809.17,-378.212 2799.08,-374.965 2799.26,-381.963"/>
</g>
<!-- ActiveModel::Validations::ConfirmationValidator&#45;&gt;ActiveModel::Validations -->
<g id="edge44" class="edge"><title>ActiveModel::Validations::ConfirmationValidator&#45;&gt;ActiveModel::Validations</title>
<path fill="none" stroke="black" d="M1228,-248C1103.29,-291.58 797.368,-589.418 720.004,-666.051"/>
<path fill="none" stroke="black" d="M2382.62,-371.547C2356.66,-367.873 2329.34,-363.636 2304,-359 1834.44,-273.099 1686.32,-98.8661 1237.64,-244.829"/>
<polygon fill="black" stroke="black" points="1236.41,-241.551 1228,-248 1238.59,-248.201 1236.41,-241.551"/>
</g>
<!-- ActiveModel::Validations::HelperMethods -->
<g id="node23" class="node"><title>ActiveModel::Validations::HelperMethods</title>
<ellipse fill="none" stroke="black" cx="189" cy="-642" rx="169.889" ry="18"/>
<text text-anchor="middle" x="189" y="-637.4" font-family="Times,serif" font-size="14.00">ActiveModel::Validations::HelperMethods</text>
</g>
<!-- ActiveModel::Validations::HelperMethods&#45;&gt;ActiveModel::Validations -->
<g id="edge48" class="edge"><title>ActiveModel::Validations::HelperMethods&#45;&gt;ActiveModel::Validations</title>
<path fill="none" stroke="black" d="M323.785,-653.035C408.59,-659.978 516.505,-668.813 595.339,-675.268"/>
<polygon fill="black" stroke="black" points="595.524,-678.794 605.777,-676.122 596.096,-671.818 595.524,-678.794"/>
</g>
<!-- ActiveModel::Validations::HelperMethods&#45;&gt;ActiveModel::Validations::ClassMethods -->
<g id="edge142" class="edge"><title>ActiveModel::Validations::HelperMethods&#45;&gt;ActiveModel::Validations::ClassMethods</title>
<path fill="none" stroke="black" d="M214.443,-624.117C312.906,-556.148 680.642,-313.692 1026,-234 1405.63,-146.399 1542.32,-117.258 1902,-267 1980.75,-299.787 2050.09,-376.304 2082.9,-416.795"/>
<polygon fill="black" stroke="black" points="2080.36,-419.227 2089.33,-424.86 2085.83,-414.861 2080.36,-419.227"/>
</g>
<!-- ActiveModel::EachValidator&#45;&gt;ActiveModel::Validations::NumericalityValidator -->
<g id="edge148" class="edge"><title>ActiveModel::EachValidator&#45;&gt;ActiveModel::Validations::NumericalityValidator</title>
<path fill="none" stroke="black" d="M1343.96,-535.798C1382.75,-538.473 1426.22,-541.183 1466,-543 1753.9,-556.152 2087.22,-562.639 2295.86,-565.649"/>
<polygon fill="black" stroke="black" points="1343.9,-532.286 1333.69,-535.083 1343.42,-539.269 1343.9,-532.286"/>
<polygon fill="black" stroke="black" points="2295.96,-569.151 2306.01,-565.794 2296.06,-562.151 2295.96,-569.151"/>
</g>
<!-- ActiveModel::EachValidator&#45;&gt;ActiveModel::Validations::AcceptanceValidator -->
<g id="edge118" class="edge"><title>ActiveModel::EachValidator&#45;&gt;ActiveModel::Validations::AcceptanceValidator</title>
<path fill="none" stroke="black" d="M1249.38,-501.362C1287.72,-457.311 1372.94,-367.955 1466,-326 1483.9,-317.931 1503.39,-311.811 1523.1,-307.183"/>
<polygon fill="black" stroke="black" points="1246.64,-499.176 1242.77,-509.039 1251.95,-503.742 1246.64,-499.176"/>
<polygon fill="black" stroke="black" points="1524.1,-310.546 1533.11,-304.963 1522.59,-303.712 1524.1,-310.546"/>
</g>
<!-- ActiveModel::EachValidator&#45;&gt;ActiveModel::Validations::LengthValidator -->
<g id="edge50" class="edge"><title>ActiveModel::EachValidator&#45;&gt;ActiveModel::Validations::LengthValidator</title>
<path fill="none" stroke="black" d="M1253.36,-502.314C1294.17,-464.445 1378.71,-393.421 1466,-365 1620.6,-314.662 2073.71,-319.02 2325.77,-325.886"/>
<polygon fill="black" stroke="black" points="1250.92,-499.805 1246.03,-509.202 1255.71,-504.907 1250.92,-499.805"/>
<polygon fill="black" stroke="black" points="2326.04,-329.395 2336.14,-326.173 2326.24,-322.397 2326.04,-329.395"/>
</g>
<!-- ActiveModel::EachValidator&#45;&gt;ActiveModel::Validations::InclusionValidator -->
<g id="edge64" class="edge"><title>ActiveModel::EachValidator&#45;&gt;ActiveModel::Validations::InclusionValidator</title>
<path fill="none" stroke="black" d="M1275.78,-543.474C1323.46,-559.383 1399.06,-583.184 1466,-598 1495.53,-604.536 1527.61,-610.087 1557.85,-614.638"/>
<polygon fill="black" stroke="black" points="1557.63,-618.143 1568.03,-616.143 1558.65,-611.218 1557.63,-618.143"/>
</g>
<!-- ActiveModel::EachValidator&#45;&gt;ActiveModel::Validations::FormatValidator -->
<g id="edge120" class="edge"><title>ActiveModel::EachValidator&#45;&gt;ActiveModel::Validations::FormatValidator</title>
<path fill="none" stroke="black" d="M1257,-544.482C1297.71,-569.676 1373.17,-618.818 1430,-670 1448.02,-686.228 1445.58,-697.914 1466,-711 1501.02,-733.447 1544.12,-748.426 1582.73,-758.283"/>
<polygon fill="black" stroke="black" points="1581.9,-761.681 1592.44,-760.68 1583.57,-754.885 1581.9,-761.681"/>
</g>
<!-- ActiveModel::EachValidator&#45;&gt;ActiveModel::Validations::ExclusionValidator -->
<g id="edge132" class="edge"><title>ActiveModel::EachValidator&#45;&gt;ActiveModel::Validations::ExclusionValidator</title>
<path fill="none" stroke="black" d="M1252.96,-544.822C1294.78,-573.692 1382.64,-630.154 1466,-657 1485.11,-663.154 1505.57,-667.919 1526.03,-671.605"/>
<polygon fill="black" stroke="black" points="1525.62,-675.086 1536.07,-673.33 1526.81,-668.187 1525.62,-675.086"/>
</g>
<!-- ActiveModel::EachValidator&#45;&gt;ActiveModel::Validations::ConfirmationValidator -->
<g id="edge146" class="edge"><title>ActiveModel::EachValidator&#45;&gt;ActiveModel::Validations::ConfirmationValidator</title>
<path fill="none" stroke="black" d="M1251,-509.326C1291.68,-479.302 1380.13,-419.411 1466,-397 1621.08,-356.528 2062.83,-367.161 2315.93,-377.298"/>
<polygon fill="black" stroke="black" points="2315.84,-380.798 2325.97,-377.704 2316.12,-373.803 2315.84,-380.798"/>
</g>
<!-- ActiveModel::Validations::WithValidator -->
<g id="node26" class="node"><title>ActiveModel::Validations::WithValidator</title>
<ellipse fill="none" stroke="black" cx="1684" cy="-424" rx="163.851" ry="18"/>
<text text-anchor="middle" x="1684" y="-419.4" font-family="Times,serif" font-size="14.00">ActiveModel::Validations::WithValidator</text>
</g>
<!-- ActiveModel::EachValidator&#45;&gt;ActiveModel::Validations::WithValidator -->
<g id="edge56" class="edge"><title>ActiveModel::EachValidator&#45;&gt;ActiveModel::Validations::WithValidator</title>
<path fill="none" stroke="black" d="M1275.78,-510.526C1323.46,-494.617 1399.06,-470.816 1466,-456 1496.92,-449.156 1530.64,-443.392 1562.12,-438.725"/>
<polygon fill="black" stroke="black" points="1562.86,-442.154 1572.25,-437.248 1561.85,-435.227 1562.86,-442.154"/>
</g>
<!-- ActiveModel::BlockValidator -->
<g id="node33" class="node"><title>ActiveModel::BlockValidator</title>
<ellipse fill="none" stroke="black" cx="2500" cy="-510" rx="120.919" ry="18"/>
<text text-anchor="middle" x="2500" y="-505.4" font-family="Times,serif" font-size="14.00">ActiveModel::BlockValidator</text>
</g>
<!-- ActiveModel::EachValidator&#45;&gt;ActiveModel::BlockValidator -->
<g id="edge160" class="edge"><title>ActiveModel::EachValidator&#45;&gt;ActiveModel::BlockValidator</title>
<path fill="none" stroke="black" d="M1355.85,-528.312C1552.09,-529.891 1939.36,-531.284 2268,-522 2303.5,-520.997 2342.03,-519.264 2377.3,-517.422"/>
<polygon fill="black" stroke="black" points="1355.81,-524.812 1345.78,-528.23 1355.76,-531.812 1355.81,-524.812"/>
<polygon fill="black" stroke="black" points="2377.84,-520.899 2387.65,-516.874 2377.47,-513.908 2377.84,-520.899"/>
</g>
<!-- ActiveModel::Validator -->
<g id="node42" class="node"><title>ActiveModel::Validator</title>
<ellipse fill="none" stroke="black" cx="2500" cy="-448" rx="98.7825" ry="18"/>
<text text-anchor="middle" x="2500" y="-443.4" font-family="Times,serif" font-size="14.00">ActiveModel::Validator</text>
</g>
<!-- ActiveModel::EachValidator&#45;&gt;ActiveModel::Validator -->
<g id="edge134" class="edge"><title>ActiveModel::EachValidator&#45;&gt;ActiveModel::Validator</title>
<path fill="none" stroke="black" d="M1341.98,-522.239C1533.43,-513.908 1931.7,-495.151 2268,-470 2312.54,-466.669 2361.81,-462.12 2403.45,-458.022"/>
<polygon fill="black" stroke="black" points="2403.98,-461.487 2413.58,-457.019 2403.29,-454.521 2403.98,-461.487"/>
</g>
<!-- ActiveModel::Validations::ClassMethods&#45;&gt;ActiveModel::Validations::NumericalityValidator -->
<g id="edge150" class="edge"><title>ActiveModel::Validations::ClassMethods&#45;&gt;ActiveModel::Validations::NumericalityValidator</title>
<path fill="none" stroke="black" d="M2133.93,-460.828C2172.49,-482.25 2241.01,-517.712 2304,-537 2324.12,-543.161 2345.8,-548.147 2367.14,-552.167"/>
<polygon fill="black" stroke="black" points="2366.78,-555.66 2377.25,-554.006 2368.04,-548.773 2366.78,-555.66"/>
</g>
<!-- ActiveModel::Validations::ClassMethods&#45;&gt;ActiveModel::Validations::LengthValidator -->
<g id="edge54" class="edge"><title>ActiveModel::Validations::ClassMethods&#45;&gt;ActiveModel::Validations::LengthValidator</title>
<path fill="none" stroke="black" d="M2137.6,-425.281C2176.9,-405.94 2243.43,-375.526 2304,-359 2323.29,-353.736 2343.95,-349.469 2364.35,-346.019"/>
<polygon fill="black" stroke="black" points="2365.03,-349.454 2374.34,-344.39 2363.9,-342.546 2365.03,-349.454"/>
</g>
<!-- ActiveModel::Validations::ClassMethods&#45;&gt;ActiveModel::Validations::ConfirmationValidator -->
<g id="edge144" class="edge"><title>ActiveModel::Validations::ClassMethods&#45;&gt;ActiveModel::Validations::ConfirmationValidator</title>
<path fill="none" stroke="black" d="M2202.92,-428.653C2257.96,-420.751 2326.55,-410.903 2383.95,-402.662"/>
<polygon fill="black" stroke="black" points="2384.76,-406.081 2394.16,-401.196 2383.77,-399.152 2384.76,-406.081"/>
</g>
<!-- ActiveModel::Validations::ClassMethods&#45;&gt;ActiveModel::EachValidator -->
<g id="edge76" class="edge"><title>ActiveModel::Validations::ClassMethods&#45;&gt;ActiveModel::EachValidator</title>
<path fill="none" stroke="black" d="M1960.15,-452.063C1830.91,-460.827 1635.43,-475.487 1466,-494 1418.2,-499.223 1365.19,-506.433 1321.36,-512.782"/>
<polygon fill="black" stroke="black" points="1320.68,-509.344 1311.29,-514.249 1321.69,-516.271 1320.68,-509.344"/>
</g>
<!-- ActiveModel::Validations::ClassMethods&#45;&gt;ActiveModel::BlockValidator -->
<g id="edge158" class="edge"><title>ActiveModel::Validations::ClassMethods&#45;&gt;ActiveModel::BlockValidator</title>
<path fill="none" stroke="black" d="M2192.59,-458.12C2257.39,-469.055 2344.61,-483.776 2409.6,-494.743"/>
<polygon fill="black" stroke="black" points="2409.39,-498.257 2419.83,-496.47 2410.55,-491.355 2409.39,-498.257"/>
</g>
<!-- ActiveModel::Validations::ClassMethods&#45;&gt;ActiveModel::Validator -->
<g id="edge136" class="edge"><title>ActiveModel::Validations::ClassMethods&#45;&gt;ActiveModel::Validator</title>
<path fill="none" stroke="black" d="M2267.05,-445.066C2308.69,-445.591 2352.42,-446.141 2390.59,-446.622"/>
<polygon fill="black" stroke="black" points="2390.64,-450.123 2400.69,-446.749 2390.73,-443.123 2390.64,-450.123"/>
</g>
<!-- #&lt;Module:0x100652330&gt; -->
<g id="node27" class="node"><title>#&lt;Module:0x100652330&gt;</title>
<ellipse fill="none" stroke="black" cx="702" cy="-960" rx="108.844" ry="18"/>
<text text-anchor="middle" x="702" y="-955.4" font-family="Times,serif" font-size="14.00">#&lt;Module:0x100652330&gt;</text>
</g>
<!-- ModelWithAttributesWithSpaces -->
<g id="node28" class="node"><title>ModelWithAttributesWithSpaces</title>
<ellipse fill="none" stroke="black" cx="189" cy="-960" rx="134.164" ry="18"/>
<text text-anchor="middle" x="189" y="-955.4" font-family="Times,serif" font-size="14.00">ModelWithAttributesWithSpaces</text>
</g>
<!-- ModelWithAttributesWithSpaces&#45;&gt;#&lt;Module:0x100652330&gt; -->
<g id="edge58" class="edge"><title>ModelWithAttributesWithSpaces&#45;&gt;#&lt;Module:0x100652330&gt;</title>
<path fill="none" stroke="black" d="M323.115,-960C403.377,-960 504.521,-960 582.114,-960"/>
<polygon fill="black" stroke="black" points="582.419,-963.5 592.419,-960 582.419,-956.5 582.419,-963.5"/>
</g>
<!-- ActiveModel::AttributeMethods::ClassMethods::AttributeMethodMatcher -->
<g id="node44" class="node"><title>ActiveModel::AttributeMethods::ClassMethods::AttributeMethodMatcher</title>
<ellipse fill="none" stroke="black" cx="702" cy="-906" rx="288" ry="18"/>
<text text-anchor="middle" x="702" y="-901.4" font-family="Times,serif" font-size="14.00">ActiveModel::AttributeMethods::ClassMethods::AttributeMethodMatcher</text>
</g>
<!-- ModelWithAttributesWithSpaces&#45;&gt;ActiveModel::AttributeMethods::ClassMethods::AttributeMethodMatcher -->
<g id="edge156" class="edge"><title>ModelWithAttributesWithSpaces&#45;&gt;ActiveModel::AttributeMethods::ClassMethods::AttributeMethodMatcher</title>
<path fill="none" stroke="black" d="M286.952,-947.685C326.399,-942.873 372.337,-937.452 414,-933 450.287,-929.123 489.179,-925.271 526.273,-921.743"/>
<polygon fill="black" stroke="black" points="527.059,-925.184 536.684,-920.756 526.399,-918.215 527.059,-925.184"/>
</g>
<!-- ActiveModel::Serializers::Xml -->
<g id="node30" class="node"><title>ActiveModel::Serializers::Xml</title>
<ellipse fill="none" stroke="black" cx="2500" cy="-107" rx="125" ry="18"/>
<text text-anchor="middle" x="2500" y="-102.4" font-family="Times,serif" font-size="14.00">ActiveModel::Serializers::Xml</text>
</g>
<!-- ActiveModel::Serializers::Xml&#45;&gt;ActiveModel::Serializers::Xml::Serializer -->
<g id="edge62" class="edge"><title>ActiveModel::Serializers::Xml&#45;&gt;ActiveModel::Serializers::Xml::Serializer</title>
<path fill="none" stroke="black" d="M2618.84,-112.688C2655.44,-114.439 2696.36,-116.398 2735.32,-118.262"/>
<polygon fill="black" stroke="black" points="2735.56,-121.777 2745.71,-118.76 2735.89,-114.785 2735.56,-121.777"/>
</g>
<!-- FooObserver -->
<g id="node31" class="node"><title>FooObserver</title>
<ellipse fill="none" stroke="black" cx="702" cy="-1068" rx="59.2013" ry="18"/>
<text text-anchor="middle" x="702" y="-1063.4" font-family="Times,serif" font-size="14.00">FooObserver</text>
</g>
<!-- ActiveModel::Observer -->
<g id="node32" class="node"><title>ActiveModel::Observer</title>
<ellipse fill="none" stroke="black" cx="189" cy="-1041" rx="98.7825" ry="18"/>
<text text-anchor="middle" x="189" y="-1036.4" font-family="Times,serif" font-size="14.00">ActiveModel::Observer</text>
</g>
<!-- ActiveModel::Observer&#45;&gt;FooObserver -->
<g id="edge66" class="edge"><title>ActiveModel::Observer&#45;&gt;FooObserver</title>
<path fill="none" stroke="black" d="M284.589,-1046.03C385.911,-1051.36 543.425,-1059.65 633.189,-1064.38"/>
<polygon fill="black" stroke="black" points="633.088,-1067.88 643.258,-1064.91 633.456,-1060.89 633.088,-1067.88"/>
</g>
<!-- ActiveModel::Observing::ClassMethods -->
<g id="node41" class="node"><title>ActiveModel::Observing::ClassMethods</title>
<ellipse fill="none" stroke="black" cx="702" cy="-1014" rx="161.167" ry="18"/>
<text text-anchor="middle" x="702" y="-1009.4" font-family="Times,serif" font-size="14.00">ActiveModel::Observing::ClassMethods</text>
</g>
<!-- ActiveModel::Observer&#45;&gt;ActiveModel::Observing::ClassMethods -->
<g id="edge130" class="edge"><title>ActiveModel::Observer&#45;&gt;ActiveModel::Observing::ClassMethods</title>
<path fill="none" stroke="black" d="M294.589,-1035.44C366.979,-1031.63 464.255,-1026.51 545.6,-1022.23"/>
<polygon fill="black" stroke="black" points="294.391,-1031.95 284.589,-1035.97 294.759,-1038.94 294.391,-1031.95"/>
<polygon fill="black" stroke="black" points="546.145,-1025.71 555.947,-1021.69 545.777,-1018.72 546.145,-1025.71"/>
</g>
<!-- ActiveModel::MassAssignmentSecurity::BlackList -->
<g id="node34" class="node"><title>ActiveModel::MassAssignmentSecurity::BlackList</title>
<ellipse fill="none" stroke="black" cx="1228" cy="-72" rx="201.246" ry="18"/>
<text text-anchor="middle" x="1228" y="-67.4" font-family="Times,serif" font-size="14.00">ActiveModel::MassAssignmentSecurity::BlackList</text>
</g>
<!-- ActiveModel::MassAssignmentSecurity::PermissionSet -->
<g id="node39" class="node"><title>ActiveModel::MassAssignmentSecurity::PermissionSet</title>
<ellipse fill="none" stroke="black" cx="1684" cy="-45" rx="218.017" ry="18"/>
<text text-anchor="middle" x="1684" y="-40.4" font-family="Times,serif" font-size="14.00">ActiveModel::MassAssignmentSecurity::PermissionSet</text>
</g>
<!-- ActiveModel::MassAssignmentSecurity::BlackList&#45;&gt;ActiveModel::MassAssignmentSecurity::PermissionSet -->
<g id="edge112" class="edge"><title>ActiveModel::MassAssignmentSecurity::BlackList&#45;&gt;ActiveModel::MassAssignmentSecurity::PermissionSet</title>
<path fill="none" stroke="black" d="M1395.85,-62.0612C1428.53,-60.1262 1462.99,-58.0861 1496.26,-56.116"/>
<polygon fill="black" stroke="black" points="1496.77,-59.592 1506.55,-55.507 1496.36,-52.6043 1496.77,-59.592"/>
</g>
<!-- ActiveModel::MassAssignmentSecurity::Sanitizer&#45;&gt;ActiveModel::MassAssignmentSecurity::BlackList -->
<g id="edge98" class="edge"><title>ActiveModel::MassAssignmentSecurity::Sanitizer&#45;&gt;ActiveModel::MassAssignmentSecurity::BlackList</title>
<path fill="none" stroke="black" d="M900.109,-72C938.07,-72 977.955,-72 1016.32,-72"/>
<polygon fill="black" stroke="black" points="1016.57,-75.5001 1026.57,-72 1016.57,-68.5001 1016.57,-75.5001"/>
</g>
<!-- ActiveModel::MassAssignmentSecurity::WhiteList -->
<g id="node40" class="node"><title>ActiveModel::MassAssignmentSecurity::WhiteList</title>
<ellipse fill="none" stroke="black" cx="1228" cy="-18" rx="202" ry="18"/>
<text text-anchor="middle" x="1228" y="-13.4" font-family="Times,serif" font-size="14.00">ActiveModel::MassAssignmentSecurity::WhiteList</text>
</g>
<!-- ActiveModel::MassAssignmentSecurity::Sanitizer&#45;&gt;ActiveModel::MassAssignmentSecurity::WhiteList -->
<g id="edge128" class="edge"><title>ActiveModel::MassAssignmentSecurity::Sanitizer&#45;&gt;ActiveModel::MassAssignmentSecurity::WhiteList</title>
<path fill="none" stroke="black" d="M833.375,-58.5128C910.122,-50.6339 1007.02,-40.6866 1085.58,-32.6206"/>
<polygon fill="black" stroke="black" points="1085.97,-36.0993 1095.56,-31.5962 1085.26,-29.1359 1085.97,-36.0993"/>
</g>
<!-- ActiveModel::Dirty -->
<g id="node37" class="node"><title>ActiveModel::Dirty</title>
<ellipse fill="none" stroke="black" cx="702" cy="-1122" rx="84.0232" ry="18"/>
<text text-anchor="middle" x="702" y="-1117.4" font-family="Times,serif" font-size="14.00">ActiveModel::Dirty</text>
</g>
<!-- #&lt;Module:0x102640a48&gt; -->
<g id="node38" class="node"><title>#&lt;Module:0x102640a48&gt;</title>
<ellipse fill="none" stroke="black" cx="189" cy="-1122" rx="108.844" ry="18"/>
<text text-anchor="middle" x="189" y="-1117.4" font-family="Times,serif" font-size="14.00">#&lt;Module:0x102640a48&gt;</text>
</g>
<!-- #&lt;Module:0x102640a48&gt;&#45;&gt;ActiveModel::Dirty -->
<g id="edge110" class="edge"><title>#&lt;Module:0x102640a48&gt;&#45;&gt;ActiveModel::Dirty</title>
<path fill="none" stroke="black" d="M298.737,-1122C390.469,-1122 519.945,-1122 607.226,-1122"/>
<polygon fill="black" stroke="black" points="607.39,-1125.5 617.39,-1122 607.39,-1118.5 607.39,-1125.5"/>
</g>
<!-- ActiveModel::MassAssignmentSecurity::WhiteList&#45;&gt;ActiveModel::MassAssignmentSecurity::PermissionSet -->
<g id="edge114" class="edge"><title>ActiveModel::MassAssignmentSecurity::WhiteList&#45;&gt;ActiveModel::MassAssignmentSecurity::PermissionSet</title>
<path fill="none" stroke="black" d="M1396.5,-27.9771C1429.04,-29.9034 1463.31,-31.9327 1496.41,-33.8924"/>
<polygon fill="black" stroke="black" points="1496.45,-37.4009 1506.64,-34.4982 1496.86,-30.4132 1496.45,-37.4009"/>
</g>
<!-- ActiveModel::AttributeMethods -->
<g id="node45" class="node"><title>ActiveModel::AttributeMethods</title>
<ellipse fill="none" stroke="black" cx="189" cy="-906" rx="131" ry="18"/>
<text text-anchor="middle" x="189" y="-901.4" font-family="Times,serif" font-size="14.00">ActiveModel::AttributeMethods</text>
</g>
<!-- ActiveModel::AttributeMethods&#45;&gt;ActiveModel::AttributeMethods::ClassMethods::AttributeMethodMatcher -->
<g id="edge152" class="edge"><title>ActiveModel::AttributeMethods&#45;&gt;ActiveModel::AttributeMethods::ClassMethods::AttributeMethodMatcher</title>
<path fill="none" stroke="black" d="M320.111,-906C346.135,-906 374.443,-906 403.49,-906"/>
<polygon fill="black" stroke="black" points="403.792,-909.5 413.792,-906 403.792,-902.5 403.792,-909.5"/>
</g>
<!-- ActiveModel::AttributeMethods::ClassMethods -->
<g id="node46" class="node"><title>ActiveModel::AttributeMethods::ClassMethods</title>
<ellipse fill="none" stroke="black" cx="189" cy="-852" rx="189.171" ry="18"/>
<text text-anchor="middle" x="189" y="-847.4" font-family="Times,serif" font-size="14.00">ActiveModel::AttributeMethods::ClassMethods</text>
</g>
<!-- ActiveModel::AttributeMethods::ClassMethods&#45;&gt;ActiveModel::AttributeMethods::ClassMethods::AttributeMethodMatcher -->
<g id="edge154" class="edge"><title>ActiveModel::AttributeMethods::ClassMethods&#45;&gt;ActiveModel::AttributeMethods::ClassMethods::AttributeMethodMatcher</title>
<path fill="none" stroke="black" d="M315.809,-865.348C384.953,-872.627 471.16,-881.701 544.574,-889.429"/>
<polygon fill="black" stroke="black" points="544.533,-892.944 554.844,-890.51 545.266,-885.982 544.533,-892.944"/>
</g>
</g>
</svg>
