<?xml version="1.0" encoding="UTF-8" standalone="no"?>
<!DOCTYPE svg PUBLIC "-//W3C//DTD SVG 1.1//EN"
 "http://www.w3.org/Graphics/SVG/1.1/DTD/svg11.dtd">
<!-- Generated by graphviz version 2.26.3 (20100126.1600)
 -->
<!-- Title: G Pages: 1 -->
<svg width="1702pt" height="1343pt"
 viewBox="0.00 0.00 1702.00 1342.98" xmlns="http://www.w3.org/2000/svg" xmlns:xlink="http://www.w3.org/1999/xlink">
<g id="graph1" class="graph" transform="scale(1 1) rotate(0) translate(4 1338.98)">
<title>G</title>
<polygon fill="white" stroke="white" points="-4,5 -4,-1338.98 1699,-1338.98 1699,5 -4,5"/>
<!-- Mechanize::ContentTypeError -->
<g id="node1" class="node"><title>Mechanize::ContentTypeError</title>
<ellipse fill="none" stroke="black" cx="312" cy="-1316.98" rx="124.944" ry="18"/>
<text text-anchor="middle" x="312" y="-1312.38" font-family="Times,serif" font-size="14.00">Mechanize::ContentTypeError</text>
</g>
<!-- Mechanize::Page -->
<g id="node2" class="node"><title>Mechanize::Page</title>
<ellipse fill="none" stroke="black" cx="75" cy="-457.983" rx="75.1319" ry="18"/>
<text text-anchor="middle" x="75" y="-453.383" font-family="Times,serif" font-size="14.00">Mechanize::Page</text>
</g>
<!-- Mechanize::Page&#45;&gt;Mechanize::ContentTypeError -->
<g id="edge2" class="edge"><title>Mechanize::Page&#45;&gt;Mechanize::ContentTypeError</title>
<path fill="none" stroke="black" d="M76.2184,-476.021C84.1603,-591.304 129.989,-1222.11 186,-1284.98 191.719,-1291.4 198.526,-1296.62 205.971,-1300.85"/>
<polygon fill="black" stroke="black" points="204.469,-1304.01 214.976,-1305.38 207.613,-1297.76 204.469,-1304.01"/>
</g>
<!-- Mechanize::Form -->
<g id="node4" class="node"><title>Mechanize::Form</title>
<ellipse fill="none" stroke="black" cx="312" cy="-1009.98" rx="78" ry="18"/>
<text text-anchor="middle" x="312" y="-1005.38" font-family="Times,serif" font-size="14.00">Mechanize::Form</text>
</g>
<!-- Mechanize::Page&#45;&gt;Mechanize::Form -->
<g id="edge28" class="edge"><title>Mechanize::Page&#45;&gt;Mechanize::Form</title>
<path fill="none" stroke="black" d="M78.3615,-485.931C87.4296,-553.961 116.556,-732.179 186,-862.983 211.789,-911.558 256.082,-958.089 284.692,-985.347"/>
<polygon fill="black" stroke="black" points="81.8287,-485.451 77.0752,-475.982 74.8865,-486.349 81.8287,-485.451"/>
<polygon fill="black" stroke="black" points="282.632,-988.214 292.317,-992.509 287.425,-983.112 282.632,-988.214"/>
</g>
<!-- Mechanize::Page::Frame -->
<g id="node5" class="node"><title>Mechanize::Page::Frame</title>
<ellipse fill="none" stroke="black" cx="312" cy="-136.983" rx="104.147" ry="18"/>
<text text-anchor="middle" x="312" y="-132.383" font-family="Times,serif" font-size="14.00">Mechanize::Page::Frame</text>
</g>
<!-- Mechanize::Page&#45;&gt;Mechanize::Page::Frame -->
<g id="edge6" class="edge"><title>Mechanize::Page&#45;&gt;Mechanize::Page::Frame</title>
<path fill="none" stroke="black" d="M77.7753,-439.915C85.8846,-392.927 113.704,-265.463 186,-191.983 201.968,-175.753 223.531,-163.982 244.301,-155.6"/>
<polygon fill="black" stroke="black" points="245.674,-158.823 253.766,-151.984 243.175,-152.284 245.674,-158.823"/>
</g>
<!-- Mechanize::Page::Link -->
<g id="node7" class="node"><title>Mechanize::Page::Link</title>
<ellipse fill="none" stroke="black" cx="1287" cy="-74.9831" rx="98" ry="18"/>
<text text-anchor="middle" x="1287" y="-70.3831" font-family="Times,serif" font-size="14.00">Mechanize::Page::Link</text>
</g>
<!-- Mechanize::Page&#45;&gt;Mechanize::Page::Link -->
<g id="edge90" class="edge"><title>Mechanize::Page&#45;&gt;Mechanize::Page::Link</title>
<path fill="none" stroke="black" d="M935,-74.9831C1016.79,-72.3137 1109.33,-72.4371 1179,-73.1618"/>
<polygon fill="black" stroke="black" points="1179.07,-76.6627 1189.1,-73.2728 1179.14,-69.6631 1179.07,-76.6627"/>
</g>
<!-- Mechanize::Page::Image -->
<g id="node17" class="node"><title>Mechanize::Page::Image</title>
<ellipse fill="none" stroke="black" cx="312" cy="-503.983" rx="104" ry="18"/>
<text text-anchor="middle" x="312" y="-499.383" font-family="Times,serif" font-size="14.00">Mechanize::Page::Image</text>
</g>
<!-- Mechanize::Page&#45;&gt;Mechanize::Page::Image -->
<g id="edge44" class="edge"><title>Mechanize::Page&#45;&gt;Mechanize::Page::Image</title>
<path fill="none" stroke="black" d="M143.49,-471.276C171.366,-476.687 203.765,-482.975 232.663,-488.584"/>
<polygon fill="black" stroke="black" points="144.068,-467.823 133.584,-469.354 142.734,-474.695 144.068,-467.823"/>
<polygon fill="black" stroke="black" points="232.242,-492.068 242.725,-490.537 233.576,-485.196 232.242,-492.068"/>
</g>
<!-- Mechanize::Util -->
<g id="node20" class="node"><title>Mechanize::Util</title>
<ellipse fill="none" stroke="black" cx="1586" cy="-944.983" rx="71.107" ry="18"/>
<text text-anchor="middle" x="1586" y="-940.383" font-family="Times,serif" font-size="14.00">Mechanize::Util</text>
</g>
<!-- Mechanize::Page&#45;&gt;Mechanize::Util -->
<g id="edge64" class="edge"><title>Mechanize::Page&#45;&gt;Mechanize::Util</title>
<path fill="none" stroke="black" d="M76.7149,-476.224C85.192,-563.592 124.685,-939.068 186,-1036.98 299.409,-1218.09 392.317,-1270.98 606,-1270.98 606,-1270.98 606,-1270.98 935,-1270.98 1177.72,-1270.98 1234.3,-1193.58 1442,-1067.98 1488.55,-1039.84 1535.07,-996.697 1562.17,-969.7"/>
<polygon fill="black" stroke="black" points="1564.71,-972.102 1569.28,-962.54 1559.75,-967.17 1564.71,-972.102"/>
</g>
<!-- Mechanize::File -->
<g id="node26" class="node"><title>Mechanize::File</title>
<ellipse fill="none" stroke="black" cx="1287" cy="-380.983" rx="71.107" ry="18"/>
<text text-anchor="middle" x="1287" y="-376.383" font-family="Times,serif" font-size="14.00">Mechanize::File</text>
</g>
<!-- Mechanize::Page&#45;&gt;Mechanize::File -->
<g id="edge80" class="edge"><title>Mechanize::Page&#45;&gt;Mechanize::File</title>
<path fill="none" stroke="black" d="M132.672,-446.446C251.845,-423.263 534.183,-371.726 774,-353.983 916.721,-343.424 953.242,-343.943 1096,-353.983 1136.92,-356.861 1182.4,-363.166 1218.72,-368.959"/>
<polygon fill="black" stroke="black" points="1218.28,-372.433 1228.71,-370.577 1219.4,-365.523 1218.28,-372.433"/>
</g>
<!-- Mechanize::Headers -->
<g id="node28" class="node"><title>Mechanize::Headers</title>
<ellipse fill="none" stroke="black" cx="1586" cy="-334.983" rx="88" ry="18"/>
<text text-anchor="middle" x="1586" y="-330.383" font-family="Times,serif" font-size="14.00">Mechanize::Headers</text>
</g>
<!-- Mechanize::Page&#45;&gt;Mechanize::Headers -->
<g id="edge110" class="edge"><title>Mechanize::Page&#45;&gt;Mechanize::Headers</title>
<path fill="none" stroke="black" d="M935,-74.9831C1160.53,-67.6227 1249.97,70.5158 1442,-47.9831 1536.21,-106.116 1570.91,-246.75 1581.73,-306.915"/>
<polygon fill="black" stroke="black" points="1578.3,-307.581 1583.43,-316.847 1585.2,-306.4 1578.3,-307.581"/>
<path fill="none" stroke="black" d="M78.0637,-439.586C89.4178,-373.807 131.281,-151.959 186,-109.983 450.414,92.8523 601.957,-86.795 935,-74.9831"/>
</g>
<!-- Mechanize::FileResponse -->
<g id="node29" class="node"><title>Mechanize::FileResponse</title>
<ellipse fill="none" stroke="black" cx="1586" cy="-703.983" rx="106.832" ry="18"/>
<text text-anchor="middle" x="1586" y="-699.383" font-family="Times,serif" font-size="14.00">Mechanize::FileResponse</text>
</g>
<!-- Mechanize::Page&#45;&gt;Mechanize::FileResponse -->
<g id="edge118" class="edge"><title>Mechanize::Page&#45;&gt;Mechanize::FileResponse</title>
<path fill="none" stroke="black" d="M96.4281,-475.332C178.109,-540.172 480.164,-768.27 774,-840.983 918.274,-876.685 1302.92,-860.38 1442,-807.983 1488.49,-790.469 1533.49,-753.813 1560.47,-729.043"/>
<polygon fill="black" stroke="black" points="1563,-731.47 1567.92,-722.085 1558.22,-726.355 1563,-731.47"/>
</g>
<!-- Mechanize::Page::Meta -->
<g id="node30" class="node"><title>Mechanize::Page::Meta</title>
<ellipse fill="none" stroke="black" cx="935" cy="-158.983" rx="100" ry="18"/>
<text text-anchor="middle" x="935" y="-154.383" font-family="Times,serif" font-size="14.00">Mechanize::Page::Meta</text>
</g>
<!-- Mechanize::Page&#45;&gt;Mechanize::Page::Meta -->
<g id="edge122" class="edge"><title>Mechanize::Page&#45;&gt;Mechanize::Page::Meta</title>
<path fill="none" stroke="black" d="M78.0184,-439.687C86.3056,-395.881 113.794,-284.917 186,-234.983 286.89,-165.212 642.492,-156.897 825.054,-157.427"/>
<polygon fill="black" stroke="black" points="825.206,-160.927 835.219,-157.466 825.233,-153.927 825.206,-160.927"/>
</g>
<!-- Mechanize::Form::ImageButton -->
<g id="node3" class="node"><title>Mechanize::Form::ImageButton</title>
<ellipse fill="none" stroke="black" cx="606" cy="-1224.98" rx="130.981" ry="18"/>
<text text-anchor="middle" x="606" y="-1220.38" font-family="Times,serif" font-size="14.00">Mechanize::Form::ImageButton</text>
</g>
<!-- Mechanize::Form::Field -->
<g id="node14" class="node"><title>Mechanize::Form::Field</title>
<ellipse fill="none" stroke="black" cx="1287" cy="-1040.98" rx="100.795" ry="18"/>
<text text-anchor="middle" x="1287" y="-1036.38" font-family="Times,serif" font-size="14.00">Mechanize::Form::Field</text>
</g>
<!-- Mechanize::Form::ImageButton&#45;&gt;Mechanize::Form::Field -->
<g id="edge30" class="edge"><title>Mechanize::Form::ImageButton&#45;&gt;Mechanize::Form::Field</title>
<path fill="none" stroke="black" d="M686.052,-1210.66C703.306,-1207 721.357,-1202.74 738,-1197.98 827.78,-1172.33 843.317,-1142.67 935,-1124.98"/>
</g>
<!-- Mechanize::Form&#45;&gt;Mechanize::Form::ImageButton -->
<g id="edge4" class="edge"><title>Mechanize::Form&#45;&gt;Mechanize::Form::ImageButton</title>
<path fill="none" stroke="black" d="M321.849,-1027.91C343.751,-1065.96 400.424,-1154.81 474,-1197.98 481.852,-1202.59 490.368,-1206.42 499.164,-1209.6"/>
<polygon fill="black" stroke="black" points="498.207,-1212.98 508.801,-1212.81 500.417,-1206.33 498.207,-1212.98"/>
</g>
<!-- Mechanize -->
<g id="node6" class="node"><title>Mechanize</title>
<ellipse fill="none" stroke="black" cx="606" cy="-553.983" rx="51.8257" ry="18"/>
<text text-anchor="middle" x="606" y="-549.383" font-family="Times,serif" font-size="14.00">Mechanize</text>
</g>
<!-- Mechanize::Form&#45;&gt;Mechanize -->
<g id="edge8" class="edge"><title>Mechanize::Form&#45;&gt;Mechanize</title>
<path fill="none" stroke="black" d="M328.956,-983.683C380.849,-903.197 537.119,-660.819 589.03,-580.304"/>
<polygon fill="black" stroke="black" points="326.002,-981.806 323.525,-992.107 331.886,-985.599 326.002,-981.806"/>
<polygon fill="black" stroke="black" points="592.077,-582.036 594.555,-571.735 586.194,-578.243 592.077,-582.036"/>
</g>
<!-- Mechanize::Form::FileUpload -->
<g id="node11" class="node"><title>Mechanize::Form::FileUpload</title>
<ellipse fill="none" stroke="black" cx="935" cy="-948.983" rx="122.931" ry="18"/>
<text text-anchor="middle" x="935" y="-944.383" font-family="Times,serif" font-size="14.00">Mechanize::Form::FileUpload</text>
</g>
<!-- Mechanize::Form&#45;&gt;Mechanize::Form::FileUpload -->
<g id="edge20" class="edge"><title>Mechanize::Form&#45;&gt;Mechanize::Form::FileUpload</title>
<path fill="none" stroke="black" d="M382.272,-1017.82C467.168,-1025.65 614.041,-1033.91 738,-1013.98 789.957,-1005.63 846.782,-985.639 885.991,-970.014"/>
<polygon fill="black" stroke="black" points="887.605,-973.136 895.566,-966.145 884.983,-966.646 887.605,-973.136"/>
</g>
<!-- Mechanize::Form::RadioButton -->
<g id="node12" class="node"><title>Mechanize::Form::RadioButton</title>
<ellipse fill="none" stroke="black" cx="606" cy="-1170.98" rx="130.139" ry="18"/>
<text text-anchor="middle" x="606" y="-1166.38" font-family="Times,serif" font-size="14.00">Mechanize::Form::RadioButton</text>
</g>
<!-- Mechanize::Form&#45;&gt;Mechanize::Form::RadioButton -->
<g id="edge22" class="edge"><title>Mechanize::Form&#45;&gt;Mechanize::Form::RadioButton</title>
<path fill="none" stroke="black" d="M329.135,-1027.95C356.888,-1055.98 414.582,-1109.9 474,-1138.98 486.527,-1145.11 500.311,-1150.12 514.103,-1154.19"/>
<polygon fill="black" stroke="black" points="513.556,-1157.68 524.129,-1157 515.442,-1150.93 513.556,-1157.68"/>
</g>
<!-- Mechanize::Form&#45;&gt;Mechanize::Form::Field -->
<g id="edge38" class="edge"><title>Mechanize::Form&#45;&gt;Mechanize::Form::Field</title>
<path fill="none" stroke="black" d="M935,-1124.98C1005.75,-1111.34 1025.73,-1121.9 1096,-1105.98 1144.76,-1094.94 1198.53,-1076 1236.56,-1061.41"/>
<polygon fill="black" stroke="black" points="1238.3,-1064.48 1246.36,-1057.61 1235.77,-1057.96 1238.3,-1064.48"/>
<path fill="none" stroke="black" d="M606,-1124.98C750.547,-1147.06 791.425,-1152.68 935,-1124.98"/>
</g>
<!-- Mechanize::Form::MultiSelectList -->
<g id="node15" class="node"><title>Mechanize::Form::MultiSelectList</title>
<ellipse fill="none" stroke="black" cx="935" cy="-1078.98" rx="139.031" ry="18"/>
<text text-anchor="middle" x="935" y="-1074.38" font-family="Times,serif" font-size="14.00">Mechanize::Form::MultiSelectList</text>
</g>
<!-- Mechanize::Form&#45;&gt;Mechanize::Form::MultiSelectList -->
<g id="edge92" class="edge"><title>Mechanize::Form&#45;&gt;Mechanize::Form::MultiSelectList</title>
<path fill="none" stroke="black" d="M334.703,-1027.4C364.792,-1049.52 420.352,-1087.07 474,-1105.98 529.899,-1125.69 547.408,-1116.04 606,-1124.98"/>
<path fill="none" stroke="black" d="M606,-1124.98C651.79,-1131.98 769.646,-1112.08 851.104,-1096.29"/>
<polygon fill="black" stroke="black" points="852.204,-1099.64 861.348,-1094.29 850.862,-1092.77 852.204,-1099.64"/>
</g>
<!-- Mechanize::Form&#45;&gt;Mechanize::Util -->
<g id="edge60" class="edge"><title>Mechanize::Form&#45;&gt;Mechanize::Util</title>
<path fill="none" stroke="black" d="M331.101,-992.433C359.653,-967.517 416.305,-923.024 474,-905.983 647.268,-854.805 1106.46,-896.272 1287,-902.983"/>
<path fill="none" stroke="black" d="M1287,-902.983C1367.43,-906.943 1458.99,-921.273 1519.37,-932.102"/>
<polygon fill="black" stroke="black" points="1519.06,-935.604 1529.53,-933.944 1520.31,-928.716 1519.06,-935.604"/>
</g>
<!-- Mechanize::Form::SelectList -->
<g id="node22" class="node"><title>Mechanize::Form::SelectList</title>
<ellipse fill="none" stroke="black" cx="606" cy="-1078.98" rx="118.906" ry="18"/>
<text text-anchor="middle" x="606" y="-1074.38" font-family="Times,serif" font-size="14.00">Mechanize::Form::SelectList</text>
</g>
<!-- Mechanize::Form&#45;&gt;Mechanize::Form::SelectList -->
<g id="edge126" class="edge"><title>Mechanize::Form&#45;&gt;Mechanize::Form::SelectList</title>
<path fill="none" stroke="black" d="M366.954,-1022.88C413.308,-1033.76 480.095,-1049.43 531.299,-1061.45"/>
<polygon fill="black" stroke="black" points="530.786,-1064.93 541.321,-1063.8 532.385,-1058.11 530.786,-1064.93"/>
</g>
<!-- #&lt;Hash:(hex number)&gt; -->
<g id="node24" class="node"><title>#&lt;Hash:(hex number)&gt;</title>
<ellipse fill="none" stroke="black" cx="606" cy="-986.983" rx="98.7825" ry="18"/>
<text text-anchor="middle" x="606" y="-982.383" font-family="Times,serif" font-size="14.00">#&lt;Hash:(hex number)&gt;</text>
</g>
<!-- Mechanize::Form&#45;&gt;#&lt;Hash:(hex number)&gt; -->
<g id="edge72" class="edge"><title>Mechanize::Form&#45;&gt;#&lt;Hash:(hex number)&gt;</title>
<path fill="none" stroke="black" d="M386.189,-1004.18C421.948,-1001.38 465.397,-997.983 504.194,-994.947"/>
<polygon fill="black" stroke="black" points="504.779,-998.413 514.475,-994.143 504.233,-991.434 504.779,-998.413"/>
</g>
<!-- Mechanize::Form::CheckBox -->
<g id="node31" class="node"><title>Mechanize::Form::CheckBox</title>
<ellipse fill="none" stroke="black" cx="606" cy="-932.983" rx="122.089" ry="18"/>
<text text-anchor="middle" x="606" y="-928.383" font-family="Times,serif" font-size="14.00">Mechanize::Form::CheckBox</text>
</g>
<!-- Mechanize::Form&#45;&gt;Mechanize::Form::CheckBox -->
<g id="edge124" class="edge"><title>Mechanize::Form&#45;&gt;Mechanize::Form::CheckBox</title>
<path fill="none" stroke="black" d="M356.018,-995.121C388.413,-984.497 433.651,-970.31 474,-959.983 488.871,-956.177 504.792,-952.548 520.248,-949.255"/>
<polygon fill="black" stroke="black" points="521.253,-952.621 530.321,-947.142 519.815,-945.77 521.253,-952.621"/>
</g>
<!-- Mechanize::Page::Frame&#45;&gt;Mechanize::Page::Link -->
<g id="edge84" class="edge"><title>Mechanize::Page::Frame&#45;&gt;Mechanize::Page::Link</title>
<path fill="none" stroke="black" d="M411.342,-131.285C560.188,-122.66 849.904,-105.535 1096,-88.9831 1125.23,-87.0171 1156.97,-84.746 1186.02,-82.6126"/>
<polygon fill="black" stroke="black" points="1186.46,-86.0898 1196.17,-81.8645 1185.94,-79.1087 1186.46,-86.0898"/>
</g>
<!-- Mechanize&#45;&gt;Mechanize::Page -->
<g id="edge98" class="edge"><title>Mechanize&#45;&gt;Mechanize::Page</title>
<path fill="none" stroke="black" d="M580.075,-538.323C548.005,-519.861 491.122,-490.041 438,-476.983 344.206,-453.928 232.815,-451.649 158.392,-453.544"/>
<polygon fill="black" stroke="black" points="158.038,-450.053 148.142,-453.838 158.238,-457.05 158.038,-450.053"/>
</g>
<!-- Mechanize&#45;&gt;Mechanize::Page::Link -->
<g id="edge86" class="edge"><title>Mechanize&#45;&gt;Mechanize::Page::Link</title>
<path fill="none" stroke="black" d="M611.097,-525.814C624.553,-460.4 667.583,-298.152 774,-223.983 892.223,-141.586 959.3,-231.581 1096,-185.983 1156.8,-165.704 1219.6,-124.604 1255.89,-98.5057"/>
<polygon fill="black" stroke="black" points="607.627,-525.317 609.119,-535.807 614.494,-526.677 607.627,-525.317"/>
<polygon fill="black" stroke="black" points="1258.07,-101.251 1264.1,-92.5365 1253.95,-95.591 1258.07,-101.251"/>
</g>
<!-- Mechanize::History -->
<g id="node8" class="node"><title>Mechanize::History</title>
<ellipse fill="none" stroke="black" cx="935" cy="-580.983" rx="85.1942" ry="18"/>
<text text-anchor="middle" x="935" y="-576.383" font-family="Times,serif" font-size="14.00">Mechanize::History</text>
</g>
<!-- Mechanize&#45;&gt;Mechanize::History -->
<g id="edge12" class="edge"><title>Mechanize&#45;&gt;Mechanize::History</title>
<path fill="none" stroke="black" d="M657.406,-558.202C707.548,-562.317 784.862,-568.662 845.175,-573.611"/>
<polygon fill="black" stroke="black" points="845.21,-577.126 855.463,-574.456 845.783,-570.149 845.21,-577.126"/>
</g>
<!-- Mechanize::URIResolver -->
<g id="node9" class="node"><title>Mechanize::URIResolver</title>
<ellipse fill="none" stroke="black" cx="935" cy="-250.983" rx="106" ry="18"/>
<text text-anchor="middle" x="935" y="-246.383" font-family="Times,serif" font-size="14.00">Mechanize::URIResolver</text>
</g>
<!-- Mechanize&#45;&gt;Mechanize::URIResolver -->
<g id="edge14" class="edge"><title>Mechanize&#45;&gt;Mechanize::URIResolver</title>
<path fill="none" stroke="black" d="M614.641,-536.008C636.011,-493.251 695.356,-384.334 774,-320.983 802.502,-298.024 839.688,-281.202 871.14,-269.811"/>
<polygon fill="black" stroke="black" points="872.428,-273.069 880.701,-266.45 870.107,-266.465 872.428,-273.069"/>
</g>
<!-- Mechanize::FileRequest -->
<g id="node10" class="node"><title>Mechanize::FileRequest</title>
<ellipse fill="none" stroke="black" cx="935" cy="-526.983" rx="100.795" ry="18"/>
<text text-anchor="middle" x="935" y="-522.383" font-family="Times,serif" font-size="14.00">Mechanize::FileRequest</text>
</g>
<!-- Mechanize&#45;&gt;Mechanize::FileRequest -->
<g id="edge16" class="edge"><title>Mechanize&#45;&gt;Mechanize::FileRequest</title>
<path fill="none" stroke="black" d="M657.406,-549.764C704.131,-545.93 774.451,-540.159 832.622,-535.385"/>
<polygon fill="black" stroke="black" points="832.909,-538.873 842.589,-534.567 832.336,-531.897 832.909,-538.873"/>
</g>
<!-- Mechanize&#45;&gt;Mechanize::Form::FileUpload -->
<g id="edge18" class="edge"><title>Mechanize&#45;&gt;Mechanize::Form::FileUpload</title>
<path fill="none" stroke="black" d="M613.109,-571.934C632.813,-620.009 692.121,-753.926 774,-840.983 807.974,-877.106 856.17,-907.422 890.965,-926.651"/>
<polygon fill="black" stroke="black" points="889.494,-929.835 899.952,-931.536 892.838,-923.685 889.494,-929.835"/>
</g>
<!-- Mechanize::RedirectLimitReachedError -->
<g id="node13" class="node"><title>Mechanize::RedirectLimitReachedError</title>
<ellipse fill="none" stroke="black" cx="935" cy="-472.983" rx="161" ry="18"/>
<text text-anchor="middle" x="935" y="-468.383" font-family="Times,serif" font-size="14.00">Mechanize::RedirectLimitReachedError</text>
</g>
<!-- Mechanize&#45;&gt;Mechanize::RedirectLimitReachedError -->
<g id="edge24" class="edge"><title>Mechanize&#45;&gt;Mechanize::RedirectLimitReachedError</title>
<path fill="none" stroke="black" d="M641.944,-540.756C675.67,-528.746 727.71,-511.241 774,-499.983 790.69,-495.924 808.501,-492.273 825.967,-489.066"/>
<polygon fill="black" stroke="black" points="826.976,-492.441 836.2,-487.228 825.738,-485.551 826.976,-492.441"/>
</g>
<!-- Mechanize&#45;&gt;Mechanize::Form::Field -->
<g id="edge32" class="edge"><title>Mechanize&#45;&gt;Mechanize::Form::Field</title>
<path fill="none" stroke="black" d="M612.593,-572.008C641.526,-650.905 756.582,-962.494 774,-975.983 834.744,-1023.03 1043.59,-1036.22 1175.34,-1039.8"/>
<polygon fill="black" stroke="black" points="1175.39,-1043.3 1185.48,-1040.06 1175.57,-1036.3 1175.39,-1043.3"/>
</g>
<!-- Mechanize::CookieJar -->
<g id="node16" class="node"><title>Mechanize::CookieJar</title>
<ellipse fill="none" stroke="black" cx="935" cy="-780.983" rx="94.0852" ry="18"/>
<text text-anchor="middle" x="935" y="-776.383" font-family="Times,serif" font-size="14.00">Mechanize::CookieJar</text>
</g>
<!-- Mechanize&#45;&gt;Mechanize::CookieJar -->
<g id="edge42" class="edge"><title>Mechanize&#45;&gt;Mechanize::CookieJar</title>
<path fill="none" stroke="black" d="M615.684,-571.723C637.98,-610.737 696.989,-704.076 774,-748.983 793.107,-760.125 815.427,-767.452 837.255,-772.254"/>
<polygon fill="black" stroke="black" points="836.739,-775.72 847.237,-774.287 838.137,-768.861 836.739,-775.72"/>
</g>
<!-- Mechanize::Cookie -->
<g id="node19" class="node"><title>Mechanize::Cookie</title>
<ellipse fill="none" stroke="black" cx="1287" cy="-780.983" rx="84" ry="18"/>
<text text-anchor="middle" x="1287" y="-776.383" font-family="Times,serif" font-size="14.00">Mechanize::Cookie</text>
</g>
<!-- Mechanize&#45;&gt;Mechanize::Cookie -->
<g id="edge48" class="edge"><title>Mechanize&#45;&gt;Mechanize::Cookie</title>
<path fill="none" stroke="black" d="M935,-826.983C960.726,-835.329 1116.67,-810.601 1212.16,-794.233"/>
<polygon fill="black" stroke="black" points="1212.8,-797.674 1222.07,-792.528 1211.62,-790.775 1212.8,-797.674"/>
<path fill="none" stroke="black" d="M611.866,-572.03C628.483,-619.944 680.81,-750.597 774,-807.983 835.353,-845.764 866.464,-804.749 935,-826.983"/>
</g>
<!-- Mechanize&#45;&gt;Mechanize::Util -->
<g id="edge54" class="edge"><title>Mechanize&#45;&gt;Mechanize::Util</title>
<path fill="none" stroke="black" d="M935,-826.983C1150.93,-897.034 1221.84,-833.636 1442,-888.983 1476.94,-897.767 1514.86,-912.749 1543.01,-925.008"/>
<polygon fill="black" stroke="black" points="1541.6,-928.212 1552.16,-929.048 1544.43,-921.808 1541.6,-928.212"/>
</g>
<!-- Mechanize::ResponseCodeError -->
<g id="node23" class="node"><title>Mechanize::ResponseCodeError</title>
<ellipse fill="none" stroke="black" cx="935" cy="-688.983" rx="133" ry="18"/>
<text text-anchor="middle" x="935" y="-684.383" font-family="Times,serif" font-size="14.00">Mechanize::ResponseCodeError</text>
</g>
<!-- Mechanize&#45;&gt;Mechanize::ResponseCodeError -->
<g id="edge70" class="edge"><title>Mechanize&#45;&gt;Mechanize::ResponseCodeError</title>
<path fill="none" stroke="black" d="M626.236,-570.939C656.377,-595.232 715.783,-639.487 774,-661.983 788.668,-667.651 804.541,-672.131 820.407,-675.67"/>
<polygon fill="black" stroke="black" points="819.767,-679.112 830.275,-677.755 821.214,-672.264 819.767,-679.112"/>
</g>
<!-- Mechanize::FileConnection -->
<g id="node25" class="node"><title>Mechanize::FileConnection</title>
<ellipse fill="none" stroke="black" cx="1287" cy="-726.983" rx="114.039" ry="18"/>
<text text-anchor="middle" x="1287" y="-722.383" font-family="Times,serif" font-size="14.00">Mechanize::FileConnection</text>
</g>
<!-- Mechanize&#45;&gt;Mechanize::FileConnection -->
<g id="edge74" class="edge"><title>Mechanize&#45;&gt;Mechanize::FileConnection</title>
<path fill="none" stroke="black" d="M935,-734.983C1021.37,-753.172 1122.3,-748.297 1193.88,-740.589"/>
<polygon fill="black" stroke="black" points="1194.67,-744.022 1204.22,-739.434 1193.9,-737.066 1194.67,-744.022"/>
</g>
<!-- Mechanize&#45;&gt;Mechanize::File -->
<g id="edge76" class="edge"><title>Mechanize&#45;&gt;Mechanize::File</title>
<path fill="none" stroke="black" d="M625.599,-537.062C655.404,-512.387 714.926,-467.173 774,-445.983 909.642,-397.328 953.092,-426.514 1096,-407.983 1135.45,-402.868 1179.41,-396.687 1215.2,-391.531"/>
<polygon fill="black" stroke="black" points="1216.15,-394.93 1225.55,-390.036 1215.15,-388.002 1216.15,-394.93"/>
</g>
<!-- Mechanize::FileSaver -->
<g id="node27" class="node"><title>Mechanize::FileSaver</title>
<ellipse fill="none" stroke="black" cx="935" cy="-380.983" rx="92" ry="18"/>
<text text-anchor="middle" x="935" y="-376.383" font-family="Times,serif" font-size="14.00">Mechanize::FileSaver</text>
</g>
<!-- Mechanize&#45;&gt;Mechanize::FileSaver -->
<g id="edge82" class="edge"><title>Mechanize&#45;&gt;Mechanize::FileSaver</title>
<path fill="none" stroke="black" d="M621.165,-536.46C648.465,-506.127 709.111,-444.106 774,-412.983 795.247,-402.792 819.565,-395.846 842.754,-391.112"/>
<polygon fill="black" stroke="black" points="843.452,-394.542 852.611,-389.216 842.13,-387.668 843.452,-394.542"/>
</g>
<!-- Mechanize&#45;&gt;Mechanize::Headers -->
<g id="edge106" class="edge"><title>Mechanize&#45;&gt;Mechanize::Headers</title>
<path fill="none" stroke="black" d="M614.401,-536.028C634.847,-494.735 691.634,-393.544 774,-353.983 1025.98,-232.954 1374.64,-287.977 1519.13,-318.966"/>
<polygon fill="black" stroke="black" points="1518.66,-322.446 1529.18,-321.153 1520.15,-315.606 1518.66,-322.446"/>
</g>
<!-- Mechanize&#45;&gt;Mechanize::FileResponse -->
<g id="edge112" class="edge"><title>Mechanize&#45;&gt;Mechanize::FileResponse</title>
<path fill="none" stroke="black" d="M935,-734.983C1005.51,-749.831 1026.52,-735.052 1096,-715.983 1112.88,-711.349 1114.87,-703.618 1132,-699.983 1266.78,-671.382 1304.24,-698.07 1442,-699.983 1451.09,-700.109 1460.5,-700.28 1469.96,-700.481"/>
<polygon fill="black" stroke="black" points="1470.16,-703.986 1480.23,-700.709 1470.31,-696.988 1470.16,-703.986"/>
<path fill="none" stroke="black" d="M618.097,-571.699C642.803,-606.261 702.778,-682.249 774,-715.983 839.117,-746.826 864.623,-719.539 935,-734.983"/>
</g>
<!-- Mechanize&#45;&gt;Mechanize::Page::Meta -->
<g id="edge120" class="edge"><title>Mechanize&#45;&gt;Mechanize::Page::Meta</title>
<path fill="none" stroke="black" d="M608.585,-535.72C618.103,-475.699 656.948,-283.105 774,-190.983 789.518,-178.77 808.431,-170.825 827.764,-165.73"/>
<polygon fill="black" stroke="black" points="828.671,-169.112 837.585,-163.386 827.045,-162.304 828.671,-169.112"/>
</g>
<!-- Mechanize::PluggableParser -->
<g id="node32" class="node"><title>Mechanize::PluggableParser</title>
<ellipse fill="none" stroke="black" cx="935" cy="-634.983" rx="116.894" ry="18"/>
<text text-anchor="middle" x="935" y="-630.383" font-family="Times,serif" font-size="14.00">Mechanize::PluggableParser</text>
</g>
<!-- Mechanize&#45;&gt;Mechanize::PluggableParser -->
<g id="edge128" class="edge"><title>Mechanize&#45;&gt;Mechanize::PluggableParser</title>
<path fill="none" stroke="black" d="M641.944,-567.211C675.67,-579.22 727.71,-596.725 774,-607.983 794.564,-612.985 816.831,-617.366 838.056,-621.062"/>
<polygon fill="black" stroke="black" points="837.605,-624.536 848.051,-622.767 838.782,-617.636 837.605,-624.536"/>
</g>
<!-- Mechanize::URIResolver&#45;&gt;Mechanize::Page -->
<g id="edge100" class="edge"><title>Mechanize::URIResolver&#45;&gt;Mechanize::Page</title>
<path fill="none" stroke="black" d="M836.866,-244.176C659.489,-233.649 293.893,-220.616 186,-282.983 129.575,-315.6 97.4246,-389.681 83.4478,-430.214"/>
<polygon fill="black" stroke="black" points="80.1109,-429.157 80.2822,-439.751 86.7544,-431.363 80.1109,-429.157"/>
</g>
<!-- Mechanize::URIResolver&#45;&gt;Mechanize::Page::Link -->
<g id="edge88" class="edge"><title>Mechanize::URIResolver&#45;&gt;Mechanize::Page::Link</title>
<path fill="none" stroke="black" d="M1022.85,-240.891C1047.23,-236.14 1073.24,-229.176 1096,-218.983 1162.59,-189.156 1227.75,-132.434 1262.07,-99.7895"/>
<polygon fill="black" stroke="black" points="1264.54,-102.274 1269.32,-92.8179 1259.69,-97.2296 1264.54,-102.274"/>
</g>
<!-- Mechanize::UnsupportedSchemeError -->
<g id="node18" class="node"><title>Mechanize::UnsupportedSchemeError</title>
<ellipse fill="none" stroke="black" cx="1287" cy="-250.983" rx="155" ry="18"/>
<text text-anchor="middle" x="1287" y="-246.383" font-family="Times,serif" font-size="14.00">Mechanize::UnsupportedSchemeError</text>
</g>
<!-- Mechanize::URIResolver&#45;&gt;Mechanize::UnsupportedSchemeError -->
<g id="edge46" class="edge"><title>Mechanize::URIResolver&#45;&gt;Mechanize::UnsupportedSchemeError</title>
<path fill="none" stroke="black" d="M1041.09,-250.983C1066.51,-250.983 1094.25,-250.983 1121.65,-250.983"/>
<polygon fill="black" stroke="black" points="1121.73,-254.483 1131.73,-250.983 1121.73,-247.483 1121.73,-254.483"/>
</g>
<!-- Mechanize::URIResolver&#45;&gt;Mechanize::Util -->
<g id="edge52" class="edge"><title>Mechanize::URIResolver&#45;&gt;Mechanize::Util</title>
<path fill="none" stroke="black" d="M1017.61,-262.315C1153.93,-281.804 1413.81,-322.597 1442,-353.983 1498.24,-416.595 1454.64,-650.132 1478,-730.983 1498.75,-802.789 1543.54,-879.172 1568.43,-918.367"/>
<polygon fill="black" stroke="black" points="1565.66,-920.532 1574.01,-927.055 1571.55,-916.749 1565.66,-920.532"/>
</g>
<!-- Mechanize::Form::FileUpload&#45;&gt;Mechanize::Form::Field -->
<g id="edge34" class="edge"><title>Mechanize::Form::FileUpload&#45;&gt;Mechanize::Form::Field</title>
<path fill="none" stroke="black" d="M1034.05,-959.863C1055.22,-964.574 1076.94,-971.321 1096,-980.983 1115.36,-990.795 1112.52,-1004.4 1132,-1013.98 1148.13,-1021.92 1166.21,-1027.56 1184.17,-1031.56"/>
<polygon fill="black" stroke="black" points="1183.63,-1035.02 1194.13,-1033.62 1185.04,-1028.16 1183.63,-1035.02"/>
</g>
<!-- Mechanize::Form::FileUpload&#45;&gt;Mechanize::Util -->
<g id="edge56" class="edge"><title>Mechanize::Form::FileUpload&#45;&gt;Mechanize::Util</title>
<path fill="none" stroke="black" d="M1015.58,-935.284C1102.65,-921.049 1235.8,-901.08 1287,-902.983"/>
</g>
<!-- Mechanize::Form::RadioButton&#45;&gt;Mechanize::Form::Field -->
<g id="edge36" class="edge"><title>Mechanize::Form::RadioButton&#45;&gt;Mechanize::Form::Field</title>
<path fill="none" stroke="black" d="M706.875,-1159.62C772.208,-1151.58 858.975,-1139.65 935,-1124.98"/>
</g>
<!-- Mechanize::Form::Field&#45;&gt;Mechanize::Util -->
<g id="edge58" class="edge"><title>Mechanize::Form::Field&#45;&gt;Mechanize::Util</title>
<path fill="none" stroke="black" d="M1370.87,-1030.69C1394.21,-1026.66 1419.37,-1021.22 1442,-1013.98 1479.76,-1001.9 1520.28,-981.783 1548.68,-966.378"/>
<polygon fill="black" stroke="black" points="1550.38,-969.44 1557.46,-961.559 1547.01,-963.304 1550.38,-969.44"/>
</g>
<!-- Mechanize::Form::MultiSelectList&#45;&gt;Mechanize::Form::Field -->
<g id="edge40" class="edge"><title>Mechanize::Form::MultiSelectList&#45;&gt;Mechanize::Form::Field</title>
<path fill="none" stroke="black" d="M1042.05,-1067.43C1089.25,-1062.33 1144.31,-1056.39 1190.27,-1051.43"/>
<polygon fill="black" stroke="black" points="1190.66,-1054.9 1200.23,-1050.35 1189.91,-1047.94 1190.66,-1054.9"/>
</g>
<!-- Mechanize::Form::Option -->
<g id="node21" class="node"><title>Mechanize::Form::Option</title>
<ellipse fill="none" stroke="black" cx="1287" cy="-986.983" rx="108.002" ry="18"/>
<text text-anchor="middle" x="1287" y="-982.383" font-family="Times,serif" font-size="14.00">Mechanize::Form::Option</text>
</g>
<!-- Mechanize::Form::MultiSelectList&#45;&gt;Mechanize::Form::Option -->
<g id="edge66" class="edge"><title>Mechanize::Form::MultiSelectList&#45;&gt;Mechanize::Form::Option</title>
<path fill="none" stroke="black" d="M1049.22,-1064.38C1065.41,-1060.01 1081.47,-1054.34 1096,-1046.98 1115.36,-1037.17 1112.52,-1023.56 1132,-1013.98 1147.06,-1006.57 1163.82,-1001.17 1180.59,-997.226"/>
<polygon fill="black" stroke="black" points="1047.97,-1061.09 1039.14,-1066.93 1049.69,-1067.87 1047.97,-1061.09"/>
<polygon fill="black" stroke="black" points="1181.44,-1000.62 1190.46,-995.072 1179.94,-993.786 1181.44,-1000.62"/>
</g>
<!-- Mechanize::CookieJar&#45;&gt;Mechanize::Cookie -->
<g id="edge50" class="edge"><title>Mechanize::CookieJar&#45;&gt;Mechanize::Cookie</title>
<path fill="none" stroke="black" d="M1029.79,-780.983C1080.28,-780.983 1142.18,-780.983 1192.6,-780.983"/>
<polygon fill="black" stroke="black" points="1192.85,-784.483 1202.85,-780.983 1192.85,-777.483 1192.85,-784.483"/>
</g>
<!-- Mechanize::Form::Option&#45;&gt;Mechanize::Util -->
<g id="edge62" class="edge"><title>Mechanize::Form::Option&#45;&gt;Mechanize::Util</title>
<path fill="none" stroke="black" d="M1369.89,-975.34C1415.11,-968.988 1470.54,-961.202 1513.94,-955.105"/>
<polygon fill="black" stroke="black" points="1514.44,-958.569 1523.86,-953.712 1513.47,-951.638 1514.44,-958.569"/>
</g>
<!-- Mechanize::Form::SelectList&#45;&gt;Mechanize::Form::MultiSelectList -->
<g id="edge96" class="edge"><title>Mechanize::Form::SelectList&#45;&gt;Mechanize::Form::MultiSelectList</title>
<path fill="none" stroke="black" d="M725.707,-1078.98C745.04,-1078.98 765.266,-1078.98 785.201,-1078.98"/>
<polygon fill="black" stroke="black" points="785.275,-1082.48 795.275,-1078.98 785.275,-1075.48 785.275,-1082.48"/>
</g>
<!-- Mechanize::Form::SelectList&#45;&gt;Mechanize::Form::Option -->
<g id="edge68" class="edge"><title>Mechanize::Form::SelectList&#45;&gt;Mechanize::Form::Option</title>
<path fill="none" stroke="black" d="M686.244,-1065.53C714.008,-1061.02 745.344,-1056.1 774,-1051.98 917.832,-1031.32 1084.86,-1010.8 1188.26,-998.505"/>
<polygon fill="black" stroke="black" points="1188.85,-1001.96 1198.37,-997.304 1188.03,-995.007 1188.85,-1001.96"/>
</g>
<!-- Mechanize::FileConnection&#45;&gt;Mechanize::FileResponse -->
<g id="edge116" class="edge"><title>Mechanize::FileConnection&#45;&gt;Mechanize::FileResponse</title>
<path fill="none" stroke="black" d="M1389.9,-719.068C1418.38,-716.877 1449.37,-714.493 1478.13,-712.281"/>
<polygon fill="black" stroke="black" points="1478.5,-715.763 1488.2,-711.506 1477.97,-708.783 1478.5,-715.763"/>
</g>
<!-- Mechanize::File&#45;&gt;Mechanize::Headers -->
<g id="edge108" class="edge"><title>Mechanize::File&#45;&gt;Mechanize::Headers</title>
<path fill="none" stroke="black" d="M1347.87,-371.619C1393.31,-364.627 1455.86,-355.004 1505.45,-347.375"/>
<polygon fill="black" stroke="black" points="1506.16,-350.808 1515.51,-345.828 1505.09,-343.889 1506.16,-350.808"/>
</g>
<!-- Mechanize::File&#45;&gt;Mechanize::FileResponse -->
<g id="edge114" class="edge"><title>Mechanize::File&#45;&gt;Mechanize::FileResponse</title>
<path fill="none" stroke="black" d="M1303.5,-398.809C1353.52,-452.838 1503.57,-614.937 1562.18,-678.249"/>
<polygon fill="black" stroke="black" points="1559.82,-680.853 1569.18,-685.814 1564.96,-676.098 1559.82,-680.853"/>
</g>
<!-- Mechanize::FileSaver&#45;&gt;Mechanize::File -->
<g id="edge78" class="edge"><title>Mechanize::FileSaver&#45;&gt;Mechanize::File</title>
<path fill="none" stroke="black" d="M1027.02,-380.983C1082.42,-380.983 1152.33,-380.983 1205.69,-380.983"/>
<polygon fill="black" stroke="black" points="1205.79,-384.483 1215.79,-380.983 1205.79,-377.483 1205.79,-384.483"/>
</g>
</g>
</svg>
